<svg width="65" height="63" viewBox="0 0 65 63" fill="none" xmlns="http://www.w3.org/2000/svg">
<g opacity="0.2">
<mask id="path-1-outside-1_389_2608" maskUnits="userSpaceOnUse" x="0" y="0.208984" width="65" height="63" fill="black">
<rect fill="white" y="0.208984" width="65" height="63"/>
<path d="M23.8793 61.3169C19.2012 61.3169 15.1861 60.1332 11.8338 57.7658C8.50047 55.3794 5.93419 51.9419 4.13494 47.4533C2.35464 42.9457 1.46449 37.5196 1.46449 31.1749C1.48343 24.8302 2.38305 19.4325 4.16335 14.9817C5.96259 10.512 8.52888 7.10292 11.8622 4.75444C15.2145 2.40595 19.2202 1.23171 23.8793 1.23171C28.5384 1.23171 32.544 2.40595 35.8963 4.75444C39.2486 7.10292 41.8149 10.512 43.5952 14.9817C45.3944 19.4514 46.294 24.8491 46.294 31.1749C46.294 37.5385 45.3944 42.9741 43.5952 47.4817C41.8149 51.9703 39.2486 55.3984 35.8963 57.7658C32.563 60.1332 28.5573 61.3169 23.8793 61.3169ZM23.8793 52.4249C27.5156 52.4249 30.3849 50.6351 32.4872 47.0556C34.6084 43.4571 35.669 38.1635 35.669 31.1749C35.669 26.5537 35.1861 22.6711 34.2202 19.5272C33.2543 16.3832 31.8906 14.0158 30.1293 12.4249C28.3679 10.815 26.2846 10.0101 23.8793 10.0101C20.2618 10.0101 17.402 11.8094 15.2997 15.4078C13.1974 18.9874 12.1368 24.2431 12.1179 31.1749C12.099 35.815 12.563 39.7166 13.5099 42.8794C14.4759 46.0423 15.8395 48.4287 17.6009 50.0385C19.3622 51.6294 21.455 52.4249 23.8793 52.4249ZM63.3977 2.02716V60.209H52.858V12.2828H52.517L38.9091 20.976V11.3169L53.3693 2.02716H63.3977Z"/>
</mask>
<path d="M11.8338 57.7658L11.2517 58.5789L11.2569 58.5826L11.8338 57.7658ZM4.13494 47.4533L3.20485 47.8206L3.20674 47.8254L4.13494 47.4533ZM1.46449 31.1749L0.464489 31.1719V31.1749H1.46449ZM4.16335 14.9817L3.23569 14.6083L3.23488 14.6103L4.16335 14.9817ZM11.8622 4.75444L11.2884 3.93542L11.2863 3.93696L11.8622 4.75444ZM35.8963 4.75444L35.3225 5.57345L35.3225 5.57346L35.8963 4.75444ZM43.5952 14.9817L42.6661 15.3517L42.6675 15.3551L43.5952 14.9817ZM43.5952 47.4817L42.6664 47.111L42.6656 47.113L43.5952 47.4817ZM35.8963 57.7658L35.3194 56.949L35.3173 56.9505L35.8963 57.7658ZM32.4872 47.0556L31.6257 46.5478L31.6249 46.5492L32.4872 47.0556ZM34.2202 19.5272L35.1761 19.2335L34.2202 19.5272ZM30.1293 12.4249L29.4546 13.163L29.459 13.167L30.1293 12.4249ZM15.2997 15.4078L16.162 15.9143L16.1632 15.9123L15.2997 15.4078ZM12.1179 31.1749L13.1179 31.179L13.1179 31.1776L12.1179 31.1749ZM13.5099 42.8794L12.5519 43.1663L12.5535 43.1715L13.5099 42.8794ZM17.6009 50.0385L16.9262 50.7767L16.9306 50.7806L17.6009 50.0385ZM23.8793 60.3169C19.3778 60.3169 15.5713 59.181 12.4107 56.949L11.2569 58.5826C14.8009 61.0854 19.0246 62.3169 23.8793 62.3169V60.3169ZM12.4159 56.9527C9.26369 54.696 6.80439 51.4252 5.06315 47.0812L3.20674 47.8254C5.06399 52.4587 7.73725 56.0629 11.2517 58.5789L12.4159 56.9527ZM5.06503 47.086C3.34277 42.7253 2.46449 37.4307 2.46449 31.1749H0.464489C0.464489 37.6085 1.36651 43.1661 3.20486 47.8206L5.06503 47.086ZM2.46448 31.1779C2.48316 24.9208 3.37087 19.6555 5.09183 15.3531L3.23488 14.6103C1.39522 19.2094 0.483694 24.7396 0.464493 31.1719L2.46448 31.1779ZM5.09101 15.3551C6.83156 11.0312 9.2892 7.79052 12.4382 5.57192L11.2863 3.93696C7.76857 6.41533 5.09363 9.99279 3.23569 14.6083L5.09101 15.3551ZM12.436 5.57345C15.5975 3.3586 19.396 2.23171 23.8793 2.23171V0.231709C19.0443 0.231709 14.8315 1.45331 11.2884 3.93542L12.436 5.57345ZM23.8793 2.23171C28.3625 2.23171 32.161 3.3586 35.3225 5.57345L36.4701 3.93542C32.9271 1.45331 28.7142 0.231709 23.8793 0.231709V2.23171ZM35.3225 5.57346C38.4888 7.79164 40.9451 11.0307 42.6662 15.3517L44.5242 14.6117C42.6847 9.99329 40.0083 6.41421 36.4701 3.93542L35.3225 5.57346ZM42.6675 15.3551C44.4066 19.6754 45.294 24.9391 45.294 31.1749H47.294C47.294 24.7592 46.3822 19.2275 44.5228 14.6083L42.6675 15.3551ZM45.294 31.1749C45.294 37.449 44.4065 42.7518 42.6664 47.111L44.5239 47.8524C46.3824 43.1965 47.294 37.628 47.294 31.1749H45.294ZM42.6656 47.113C40.944 51.4537 38.4868 54.7121 35.3194 56.949L36.4732 58.5826C40.0103 56.0847 42.6857 52.487 44.5247 47.8504L42.6656 47.113ZM35.3173 56.9505C32.1768 59.181 28.3808 60.3169 23.8793 60.3169V62.3169C28.7338 62.3169 32.9492 61.0855 36.4754 58.5811L35.3173 56.9505ZM23.8793 53.4249C27.9264 53.4249 31.098 51.3956 33.3495 47.562L31.6249 46.5492C29.6718 49.8747 27.1048 51.4249 23.8793 51.4249V53.4249ZM33.3487 47.5634C35.6026 43.7397 36.669 38.2355 36.669 31.1749H34.669C34.669 38.0915 33.6142 43.1745 31.6258 46.5478L33.3487 47.5634ZM36.669 31.1749C36.669 26.4911 36.1804 22.5024 35.1761 19.2335L33.2643 19.8208C34.1918 22.8398 34.669 26.6163 34.669 31.1749H36.669ZM35.1761 19.2335C34.1767 15.9807 32.7369 13.4326 30.7995 11.6828L29.459 13.167C31.0444 14.599 32.3318 16.7858 33.2643 19.8208L35.1761 19.2335ZM30.8039 11.6868C28.8566 9.90696 26.532 9.01012 23.8793 9.01012V11.0101C26.0371 11.0101 27.8792 11.7231 29.4546 13.163L30.8039 11.6868ZM23.8793 9.01012C19.8463 9.01012 16.6853 11.0537 14.4363 14.9034L16.1632 15.9123C18.1187 12.565 20.6774 11.0101 23.8793 11.0101V9.01012ZM14.4374 14.9014C12.204 18.7042 11.137 24.1684 11.1179 31.1722L13.1179 31.1776C13.1366 24.3177 14.1909 19.2705 16.162 15.9143L14.4374 14.9014ZM11.1179 31.1708C11.0987 35.8729 11.5679 39.8794 12.552 43.1663L14.4679 42.5926C13.5581 39.5537 13.0992 35.7572 13.1179 31.179L11.1179 31.1708ZM12.5535 43.1715C13.5525 46.4425 14.9912 49.0082 16.9262 50.7767L18.2755 49.3004C16.6877 47.8492 15.3992 45.6422 14.4663 42.5874L12.5535 43.1715ZM16.9306 50.7806C18.88 52.5414 21.2132 53.4249 23.8793 53.4249V51.4249C21.6968 51.4249 19.8444 50.7175 18.2711 49.2964L16.9306 50.7806ZM63.3977 2.02716H64.3977V1.02716H63.3977V2.02716ZM63.3977 60.209V61.209H64.3977V60.209H63.3977ZM52.858 60.209H51.858V61.209H52.858V60.209ZM52.858 12.2828H53.858V11.2828H52.858V12.2828ZM52.517 12.2828V11.2828H52.2249L51.9787 11.4401L52.517 12.2828ZM38.9091 20.976H37.9091V22.8015L39.4474 21.8187L38.9091 20.976ZM38.9091 11.3169L38.3686 10.4756L37.9091 10.7708V11.3169H38.9091ZM53.3693 2.02716V1.02716H53.0758L52.8288 1.18583L53.3693 2.02716ZM62.3977 2.02716V60.209H64.3977V2.02716H62.3977ZM63.3977 59.209H52.858V61.209H63.3977V59.209ZM53.858 60.209V12.2828H51.858V60.209H53.858ZM52.858 11.2828H52.517V13.2828H52.858V11.2828ZM51.9787 11.4401L38.3707 20.1333L39.4474 21.8187L53.0554 13.1256L51.9787 11.4401ZM39.9091 20.976V11.3169H37.9091V20.976H39.9091ZM39.4496 12.1583L53.9098 2.8685L52.8288 1.18583L38.3686 10.4756L39.4496 12.1583ZM53.3693 3.02716H63.3977V1.02716H53.3693V3.02716Z" fill="#6B7280" mask="url(#path-1-outside-1_389_2608)"/>
</g>
</svg>
