<svg width="81" height="63" viewBox="0 0 81 63" fill="none" xmlns="http://www.w3.org/2000/svg">
<g opacity="0.2">
<mask id="path-1-outside-1_389_2598" maskUnits="userSpaceOnUse" x="0" y="0.208984" width="81" height="63" fill="black">
<rect fill="white" y="0.208984" width="81" height="63"/>
<path d="M23.6293 61.3169C18.9512 61.3169 14.9361 60.1332 11.5838 57.7658C8.25047 55.3794 5.68419 51.9419 3.88494 47.4533C2.10464 42.9457 1.21449 37.5196 1.21449 31.1749C1.23343 24.8302 2.13305 19.4325 3.91335 14.9817C5.71259 10.512 8.27888 7.10292 11.6122 4.75444C14.9645 2.40595 18.9702 1.23171 23.6293 1.23171C28.2884 1.23171 32.294 2.40595 35.6463 4.75444C38.9986 7.10292 41.5649 10.512 43.3452 14.9817C45.1444 19.4514 46.044 24.8491 46.044 31.1749C46.044 37.5385 45.1444 42.9741 43.3452 47.4817C41.5649 51.9703 38.9986 55.3984 35.6463 57.7658C32.313 60.1332 28.3073 61.3169 23.6293 61.3169ZM23.6293 52.4249C27.2656 52.4249 30.1349 50.6351 32.2372 47.0556C34.3584 43.4571 35.419 38.1635 35.419 31.1749C35.419 26.5537 34.9361 22.6711 33.9702 19.5272C33.0043 16.3832 31.6406 14.0158 29.8793 12.4249C28.1179 10.815 26.0346 10.0101 23.6293 10.0101C20.0118 10.0101 17.152 11.8094 15.0497 15.4078C12.9474 18.9874 11.8868 24.2431 11.8679 31.1749C11.849 35.815 12.313 39.7166 13.2599 42.8794C14.2259 46.0423 15.5895 48.4287 17.3509 50.0385C19.1122 51.6294 21.205 52.4249 23.6293 52.4249ZM39.483 60.209V52.5953L59.6818 32.7942C61.6136 30.8435 63.2235 29.1105 64.5114 27.5953C65.7992 26.0802 66.7652 24.6124 67.4091 23.1919C68.053 21.7715 68.375 20.2563 68.375 18.6465C68.375 16.8094 67.9583 15.2374 67.125 13.9306C66.2917 12.6048 65.1458 11.5821 63.6875 10.8624C62.2292 10.1427 60.572 9.78284 58.7159 9.78284C56.803 9.78284 55.1269 10.1806 53.6875 10.976C52.2481 11.7525 51.1307 12.8605 50.3352 14.2999C49.5587 15.7393 49.1705 17.4533 49.1705 19.4419H39.142C39.142 15.7488 39.9848 12.5385 41.6705 9.81125C43.3561 7.08398 45.6761 4.97224 48.6307 3.47603C51.6042 1.97982 55.0133 1.23171 58.858 1.23171C62.7595 1.23171 66.1875 1.96088 69.142 3.41921C72.0966 4.87754 74.3883 6.87565 76.017 9.41353C77.6648 11.9514 78.4886 14.8491 78.4886 18.1067C78.4886 20.2847 78.072 22.4249 77.2386 24.5272C76.4053 26.6294 74.9375 28.959 72.8352 31.5158C70.7519 34.0726 67.8258 37.1692 64.0568 40.8056L54.0284 51.0044V51.4022H79.3693V60.209H39.483Z"/>
</mask>
<path d="M11.5838 57.7658L11.0017 58.5789L11.0069 58.5826L11.5838 57.7658ZM3.88494 47.4533L2.95485 47.8206L2.95674 47.8254L3.88494 47.4533ZM1.21449 31.1749L0.214489 31.1719V31.1749H1.21449ZM3.91335 14.9817L2.98569 14.6083L2.98488 14.6103L3.91335 14.9817ZM11.6122 4.75444L11.0384 3.93542L11.0363 3.93696L11.6122 4.75444ZM35.6463 4.75444L35.0725 5.57345L35.0725 5.57346L35.6463 4.75444ZM43.3452 14.9817L42.4161 15.3517L42.4175 15.3551L43.3452 14.9817ZM43.3452 47.4817L42.4164 47.111L42.4156 47.113L43.3452 47.4817ZM35.6463 57.7658L35.0694 56.949L35.0673 56.9505L35.6463 57.7658ZM32.2372 47.0556L31.3757 46.5478L31.3749 46.5492L32.2372 47.0556ZM33.9702 19.5272L34.9261 19.2335L33.9702 19.5272ZM29.8793 12.4249L29.2046 13.163L29.209 13.167L29.8793 12.4249ZM15.0497 15.4078L15.912 15.9143L15.9132 15.9123L15.0497 15.4078ZM11.8679 31.1749L12.8679 31.179L12.8679 31.1776L11.8679 31.1749ZM13.2599 42.8794L12.3019 43.1663L12.3035 43.1715L13.2599 42.8794ZM17.3509 50.0385L16.6762 50.7767L16.6806 50.7806L17.3509 50.0385ZM23.6293 60.3169C19.1278 60.3169 15.3213 59.181 12.1607 56.949L11.0069 58.5826C14.5509 61.0854 18.7746 62.3169 23.6293 62.3169V60.3169ZM12.1659 56.9527C9.01369 54.696 6.55439 51.4252 4.81315 47.0812L2.95674 47.8254C4.81399 52.4587 7.48725 56.0629 11.0017 58.5789L12.1659 56.9527ZM4.81503 47.086C3.09277 42.7253 2.21449 37.4307 2.21449 31.1749H0.214489C0.214489 37.6085 1.11651 43.1661 2.95486 47.8206L4.81503 47.086ZM2.21448 31.1779C2.23316 24.9208 3.12087 19.6555 4.84183 15.3531L2.98488 14.6103C1.14522 19.2094 0.233694 24.7396 0.214493 31.1719L2.21448 31.1779ZM4.84101 15.3551C6.58156 11.0312 9.0392 7.79052 12.1882 5.57192L11.0363 3.93696C7.51857 6.41533 4.84363 9.99279 2.98569 14.6083L4.84101 15.3551ZM12.186 5.57345C15.3475 3.3586 19.146 2.23171 23.6293 2.23171V0.231709C18.7943 0.231709 14.5815 1.45331 11.0384 3.93542L12.186 5.57345ZM23.6293 2.23171C28.1125 2.23171 31.911 3.3586 35.0725 5.57345L36.2201 3.93542C32.6771 1.45331 28.4642 0.231709 23.6293 0.231709V2.23171ZM35.0725 5.57346C38.2388 7.79164 40.6951 11.0307 42.4162 15.3517L44.2742 14.6117C42.4347 9.99329 39.7583 6.41421 36.2201 3.93542L35.0725 5.57346ZM42.4175 15.3551C44.1566 19.6754 45.044 24.9391 45.044 31.1749H47.044C47.044 24.7592 46.1322 19.2275 44.2728 14.6083L42.4175 15.3551ZM45.044 31.1749C45.044 37.449 44.1565 42.7518 42.4164 47.111L44.2739 47.8524C46.1324 43.1965 47.044 37.628 47.044 31.1749H45.044ZM42.4156 47.113C40.694 51.4537 38.2368 54.7121 35.0694 56.949L36.2232 58.5826C39.7603 56.0847 42.4357 52.487 44.2747 47.8504L42.4156 47.113ZM35.0673 56.9505C31.9268 59.181 28.1308 60.3169 23.6293 60.3169V62.3169C28.4838 62.3169 32.6992 61.0855 36.2254 58.5811L35.0673 56.9505ZM23.6293 53.4249C27.6764 53.4249 30.848 51.3956 33.0995 47.562L31.3749 46.5492C29.4218 49.8747 26.8548 51.4249 23.6293 51.4249V53.4249ZM33.0987 47.5634C35.3526 43.7397 36.419 38.2355 36.419 31.1749H34.419C34.419 38.0915 33.3642 43.1745 31.3758 46.5478L33.0987 47.5634ZM36.419 31.1749C36.419 26.4911 35.9304 22.5024 34.9261 19.2335L33.0143 19.8208C33.9418 22.8398 34.419 26.6163 34.419 31.1749H36.419ZM34.9261 19.2335C33.9267 15.9807 32.4869 13.4326 30.5495 11.6828L29.209 13.167C30.7944 14.599 32.0818 16.7858 33.0143 19.8208L34.9261 19.2335ZM30.5539 11.6868C28.6066 9.90696 26.282 9.01012 23.6293 9.01012V11.0101C25.7871 11.0101 27.6292 11.7231 29.2046 13.163L30.5539 11.6868ZM23.6293 9.01012C19.5963 9.01012 16.4353 11.0537 14.1863 14.9034L15.9132 15.9123C17.8687 12.565 20.4274 11.0101 23.6293 11.0101V9.01012ZM14.1874 14.9014C11.954 18.7042 10.887 24.1684 10.8679 31.1722L12.8679 31.1776C12.8866 24.3177 13.9409 19.2705 15.912 15.9143L14.1874 14.9014ZM10.8679 31.1708C10.8487 35.8729 11.3179 39.8794 12.302 43.1663L14.2179 42.5926C13.3081 39.5537 12.8492 35.7572 12.8679 31.179L10.8679 31.1708ZM12.3035 43.1715C13.3025 46.4425 14.7412 49.0082 16.6762 50.7767L18.0255 49.3004C16.4377 47.8492 15.1492 45.6422 14.2163 42.5874L12.3035 43.1715ZM16.6806 50.7806C18.63 52.5414 20.9632 53.4249 23.6293 53.4249V51.4249C21.4468 51.4249 19.5944 50.7175 18.0211 49.2964L16.6806 50.7806ZM39.483 60.209H38.483V61.209H39.483V60.209ZM39.483 52.5953L38.7829 51.8812L38.483 52.1753V52.5953H39.483ZM59.6818 32.7942L60.3819 33.5083L60.3872 33.5031L60.3924 33.4979L59.6818 32.7942ZM67.4091 23.1919L68.3199 23.6048L67.4091 23.1919ZM67.125 13.9306L66.2783 14.4628L66.2818 14.4682L67.125 13.9306ZM63.6875 10.8624L63.2449 11.7591V11.7591L63.6875 10.8624ZM53.6875 10.976L54.1623 11.8562L54.1712 11.8513L53.6875 10.976ZM50.3352 14.2999L49.4599 13.8162L49.4551 13.8251L50.3352 14.2999ZM49.1705 19.4419V20.4419H50.1705V19.4419H49.1705ZM39.142 19.4419H38.142V20.4419H39.142V19.4419ZM41.6705 9.81126L42.5211 10.337L41.6705 9.81126ZM48.6307 3.47603L48.1812 2.58274L48.1789 2.5839L48.6307 3.47603ZM69.142 3.41921L69.5847 2.5225L69.142 3.41921ZM76.017 9.41353L75.1754 9.95366L75.1783 9.95808L76.017 9.41353ZM77.2386 24.5272L76.309 24.1587L77.2386 24.5272ZM72.8352 31.5158L72.0628 30.8807L72.06 30.8841L72.8352 31.5158ZM64.0568 40.8056L63.3625 40.0859L63.353 40.0951L63.3438 40.1045L64.0568 40.8056ZM54.0284 51.0044L53.3154 50.3033L53.0284 50.5952V51.0044H54.0284ZM54.0284 51.4022H53.0284V52.4022H54.0284V51.4022ZM79.3693 51.4022H80.3693V50.4022H79.3693V51.4022ZM79.3693 60.209V61.209H80.3693V60.209H79.3693ZM40.483 60.209V52.5953H38.483V60.209H40.483ZM40.183 53.3094L60.3819 33.5083L58.9818 32.0801L38.7829 51.8812L40.183 53.3094ZM60.3924 33.4979C62.3359 31.5353 63.9642 29.7831 65.2733 28.243L63.7494 26.9477C62.4828 28.4379 60.8914 30.1516 58.9713 32.0906L60.3924 33.4979ZM65.2733 28.243C66.6058 26.6754 67.6286 25.1296 68.3199 23.6048L66.4983 22.779C65.9017 24.0952 64.9927 25.485 63.7494 26.9477L65.2733 28.243ZM68.3199 23.6048C69.0245 22.0504 69.375 20.394 69.375 18.6465H67.375C67.375 20.1186 67.0815 21.4925 66.4983 22.779L68.3199 23.6048ZM69.375 18.6465C69.375 16.6547 68.9216 14.8881 67.9682 13.3929L66.2818 14.4682C66.9951 15.5867 67.375 16.9641 67.375 18.6465H69.375ZM67.9716 13.3984C67.036 11.9099 65.7475 10.7639 64.1301 9.96565L63.2449 11.7591C64.5442 12.4003 65.5473 13.2997 66.2784 14.4627L67.9716 13.3984ZM64.1301 9.96565C62.5158 9.16901 60.7037 8.78284 58.7159 8.78284V10.7828C60.4403 10.7828 61.9425 11.1164 63.2449 11.7591L64.1301 9.96565ZM58.7159 8.78284C56.6616 8.78284 54.8138 9.21103 53.2038 10.1008L54.1712 11.8513C55.4399 11.1501 56.9444 10.7828 58.7159 10.7828V8.78284ZM53.2127 10.0959C51.6036 10.964 50.3476 12.21 49.46 13.8162L51.2105 14.7836C51.9137 13.511 52.8926 12.5411 54.1623 11.8561L53.2127 10.0959ZM49.4551 13.8251C48.5846 15.4387 48.1705 17.323 48.1705 19.4419H50.1705C50.1705 17.5836 50.5328 16.0399 51.2153 14.7747L49.4551 13.8251ZM49.1705 18.4419H39.142V20.4419H49.1705V18.4419ZM40.142 19.4419C40.142 15.9057 40.9472 12.8835 42.5211 10.337L40.8198 9.28551C39.0225 12.1936 38.142 15.5918 38.142 19.4419H40.142ZM42.5211 10.337C44.1067 7.77155 46.2864 5.78413 49.0825 4.36816L48.1789 2.5839C45.0659 4.16035 42.6054 6.39642 40.8198 9.28551L42.5211 10.337ZM49.0802 4.36932C51.8941 2.95341 55.1451 2.23171 58.858 2.23171V0.231709C54.8814 0.231709 51.3143 1.00622 48.1812 2.58274L49.0802 4.36932ZM58.858 2.23171C62.634 2.23171 65.9057 2.93695 68.6994 4.31593L69.5847 2.5225C66.4693 0.9848 62.8849 0.231709 58.858 0.231709V2.23171ZM68.6994 4.31593C71.5067 5.70153 73.6538 7.58266 75.1755 9.95365L76.8586 8.87341C75.1227 6.16863 72.6865 4.05355 69.5847 2.5225L68.6994 4.31593ZM75.1783 9.95808C76.7127 12.3213 77.4886 15.027 77.4886 18.1067H79.4886C79.4886 14.6713 78.6169 11.5815 76.8558 8.86898L75.1783 9.95808ZM77.4886 18.1067C77.4886 20.1537 77.0977 22.1691 76.309 24.1587L78.1683 24.8957C79.0463 22.6807 79.4886 20.4157 79.4886 18.1067H77.4886ZM76.309 24.1587C75.5272 26.131 74.1268 28.3704 72.0628 30.8807L73.6077 32.1509C75.7482 29.5475 77.2834 27.1279 78.1683 24.8957L76.309 24.1587ZM72.06 30.8841C70.012 33.3976 67.1173 36.4632 63.3625 40.0859L64.7512 41.5252C68.5342 37.8752 71.4918 34.7477 73.6105 32.1475L72.06 30.8841ZM63.3438 40.1045L53.3154 50.3033L54.7415 51.7056L64.7699 41.5067L63.3438 40.1045ZM53.0284 51.0044V51.4022H55.0284V51.0044H53.0284ZM54.0284 52.4022H79.3693V50.4022H54.0284V52.4022ZM78.3693 51.4022V60.209H80.3693V51.4022H78.3693ZM79.3693 59.209H39.483V61.209H79.3693V59.209Z" fill="#6B7280" mask="url(#path-1-outside-1_389_2598)"/>
</g>
</svg>
