<svg width="84" height="63" viewBox="0 0 84 63" fill="none" xmlns="http://www.w3.org/2000/svg">
<g opacity="0.2">
<mask id="path-1-outside-1_389_2324" maskUnits="userSpaceOnUse" x="0" y="0.208984" width="84" height="63" fill="black">
<rect fill="white" y="0.208984" width="84" height="63"/>
<path d="M24.2074 61.3169C19.5294 61.3169 15.5142 60.1332 12.1619 57.7658C8.8286 55.3794 6.26231 51.9419 4.46307 47.4533C2.68277 42.9457 1.79261 37.5196 1.79261 31.1749C1.81155 24.8302 2.71117 19.4325 4.49148 14.9817C6.29072 10.512 8.85701 7.10292 12.1903 4.75444C15.5426 2.40595 19.5483 1.23171 24.2074 1.23171C28.8665 1.23171 32.8722 2.40595 36.2244 4.75444C39.5767 7.10292 42.143 10.512 43.9233 14.9817C45.7225 19.4514 46.6222 24.8491 46.6222 31.1749C46.6222 37.5385 45.7225 42.9741 43.9233 47.4817C42.143 51.9703 39.5767 55.3984 36.2244 57.7658C32.8911 60.1332 28.8854 61.3169 24.2074 61.3169ZM24.2074 52.4249C27.8438 52.4249 30.7131 50.6351 32.8153 47.0556C34.9366 43.4571 35.9972 38.1635 35.9972 31.1749C35.9972 26.5537 35.5142 22.6711 34.5483 19.5272C33.5824 16.3832 32.2188 14.0158 30.4574 12.4249C28.696 10.815 26.6127 10.0101 24.2074 10.0101C20.59 10.0101 17.7301 11.8094 15.6278 15.4078C13.5256 18.9874 12.465 24.2431 12.446 31.1749C12.4271 35.815 12.8911 39.7166 13.8381 42.8794C14.804 46.0423 16.1676 48.4287 17.929 50.0385C19.6903 51.6294 21.7831 52.4249 24.2074 52.4249ZM60.9418 61.0044C56.8509 61.0044 53.2145 60.3037 50.0327 58.9022C46.8698 57.5007 44.3698 55.5499 42.5327 53.0499C40.6955 50.5499 39.7202 47.6616 39.6065 44.3851H50.2884C50.383 45.9571 50.9039 47.3302 51.8509 48.5044C52.7978 49.6597 54.0573 50.5594 55.6293 51.2033C57.2012 51.8472 58.9626 52.1692 60.9134 52.1692C62.9967 52.1692 64.8433 51.8094 66.4531 51.0897C68.063 50.351 69.3224 49.3283 70.2315 48.0215C71.1406 46.7147 71.5857 45.209 71.5668 43.5044C71.5857 41.7431 71.1312 40.19 70.2031 38.8453C69.2751 37.5007 67.9304 36.4495 66.169 35.6919C64.4266 34.9344 62.3243 34.5556 59.8622 34.5556H54.7202V26.4306H59.8622C61.8887 26.4306 63.6596 26.0802 65.1747 25.3794C66.7088 24.6787 67.9115 23.6938 68.7827 22.4249C69.6539 21.137 70.08 19.6503 70.0611 17.9647C70.08 16.3169 69.7107 14.887 68.9531 13.6749C68.2145 12.4438 67.1634 11.4874 65.7997 10.8056C64.455 10.1238 62.8736 9.78284 61.0554 9.78284C59.2751 9.78284 57.6274 10.1048 56.1122 10.7488C54.5971 11.3927 53.3755 12.3113 52.4474 13.5044C51.5194 14.6787 51.027 16.0802 50.9702 17.709H40.8281C40.9039 14.4514 41.8414 11.5916 43.6406 9.12944C45.4588 6.64838 47.883 4.71656 50.9134 3.33398C53.9437 1.93247 57.3433 1.23171 61.1122 1.23171C64.9948 1.23171 68.366 1.96088 71.2259 3.41921C74.1046 4.8586 76.33 6.79989 77.902 9.24307C79.474 11.6863 80.2599 14.3851 80.2599 17.3397C80.2789 20.6162 79.313 23.3624 77.3622 25.5783C75.4304 27.7942 72.8925 29.2431 69.7486 29.9249V30.3794C73.8395 30.9476 76.974 32.4628 79.152 34.9249C81.349 37.3681 82.438 40.4078 82.419 44.0442C82.419 47.3018 81.491 50.2185 79.6349 52.7942C77.7978 55.351 75.2599 57.3586 72.0213 58.8169C68.8016 60.2753 65.1084 61.0044 60.9418 61.0044Z"/>
</mask>
<path d="M12.1619 57.7658L11.5798 58.5789L11.5851 58.5826L12.1619 57.7658ZM4.46307 47.4533L3.53297 47.8206L3.53486 47.8254L4.46307 47.4533ZM1.79261 31.1749L0.792614 31.1719V31.1749H1.79261ZM4.49148 14.9817L3.56381 14.6083L3.563 14.6103L4.49148 14.9817ZM12.1903 4.75444L11.6166 3.93542L11.6144 3.93696L12.1903 4.75444ZM36.2244 4.75444L35.6507 5.57345L35.6507 5.57346L36.2244 4.75444ZM43.9233 14.9817L42.9943 15.3517L42.9956 15.3551L43.9233 14.9817ZM43.9233 47.4817L42.9945 47.111L42.9937 47.113L43.9233 47.4817ZM36.2244 57.7658L35.6476 56.949L35.6454 56.9505L36.2244 57.7658ZM32.8153 47.0556L31.9539 46.5478L31.9531 46.5492L32.8153 47.0556ZM34.5483 19.5272L35.5042 19.2335L34.5483 19.5272ZM30.4574 12.4249L29.7827 13.163L29.7871 13.167L30.4574 12.4249ZM15.6278 15.4078L16.4901 15.9143L16.4913 15.9123L15.6278 15.4078ZM12.446 31.1749L13.446 31.179L13.446 31.1776L12.446 31.1749ZM13.8381 42.8794L12.8801 43.1663L12.8817 43.1715L13.8381 42.8794ZM17.929 50.0385L17.2543 50.7767L17.2587 50.7806L17.929 50.0385ZM24.2074 60.3169C19.706 60.3169 15.8994 59.181 12.7388 56.949L11.5851 58.5826C15.129 61.0854 19.3527 62.3169 24.2074 62.3169V60.3169ZM12.744 56.9527C9.59182 54.696 7.13251 51.4252 5.39127 47.0812L3.53486 47.8254C5.39211 52.4587 8.06538 56.0629 11.5798 58.5789L12.744 56.9527ZM5.39315 47.086C3.6709 42.7253 2.79261 37.4307 2.79261 31.1749H0.792614C0.792614 37.6085 1.69463 43.1661 3.53298 47.8206L5.39315 47.086ZM2.79261 31.1779C2.81129 24.9208 3.699 19.6555 5.41995 15.3531L3.563 14.6103C1.72335 19.2094 0.811819 24.7396 0.792618 31.1719L2.79261 31.1779ZM5.41914 15.3551C7.15969 11.0312 9.61732 7.79052 12.7663 5.57192L11.6144 3.93696C8.09669 6.41533 5.42175 9.99279 3.56382 14.6083L5.41914 15.3551ZM12.7641 5.57345C15.9256 3.3586 19.7242 2.23171 24.2074 2.23171V0.231709C19.3724 0.231709 15.1596 1.45331 11.6166 3.93542L12.7641 5.57345ZM24.2074 2.23171C28.6906 2.23171 32.4891 3.3586 35.6507 5.57345L36.7982 3.93542C33.2552 1.45331 29.0423 0.231709 24.2074 0.231709V2.23171ZM35.6507 5.57346C38.8169 7.79164 41.2732 11.0307 42.9943 15.3517L44.8523 14.6117C43.0128 9.99329 40.3365 6.41421 36.7982 3.93542L35.6507 5.57346ZM42.9956 15.3551C44.7347 19.6754 45.6222 24.9391 45.6222 31.1749H47.6222C47.6222 24.7592 46.7104 19.2275 44.851 14.6083L42.9956 15.3551ZM45.6222 31.1749C45.6222 37.449 44.7346 42.7518 42.9945 47.111L44.852 47.8524C46.7105 43.1965 47.6222 37.628 47.6222 31.1749H45.6222ZM42.9937 47.113C41.2721 51.4537 38.815 54.7121 35.6476 56.949L36.8013 58.5826C40.3385 56.0847 43.0139 52.487 44.8528 47.8504L42.9937 47.113ZM35.6454 56.9505C32.5049 59.181 28.7089 60.3169 24.2074 60.3169V62.3169C29.0619 62.3169 33.2773 61.0855 36.8035 58.5811L35.6454 56.9505ZM24.2074 53.4249C28.2545 53.4249 31.4262 51.3956 33.6776 47.562L31.9531 46.5492C30 49.8747 27.433 51.4249 24.2074 51.4249V53.4249ZM33.6768 47.5634C35.9308 43.7397 36.9972 38.2355 36.9972 31.1749H34.9972C34.9972 38.0915 33.9423 43.1745 31.9539 46.5478L33.6768 47.5634ZM36.9972 31.1749C36.9972 26.4911 36.5085 22.5024 35.5042 19.2335L33.5924 19.8208C34.5199 22.8398 34.9972 26.6163 34.9972 31.1749H36.9972ZM35.5042 19.2335C34.5048 15.9807 33.065 13.4326 31.1277 11.6828L29.7871 13.167C31.3725 14.599 32.6599 16.7858 33.5924 19.8208L35.5042 19.2335ZM31.132 11.6868C29.1847 9.90696 26.8602 9.01012 24.2074 9.01012V11.0101C26.3652 11.0101 28.2073 11.7231 29.7827 13.163L31.132 11.6868ZM24.2074 9.01012C20.1744 9.01012 17.0134 11.0537 14.7644 14.9034L16.4913 15.9123C18.4468 12.565 21.0055 11.0101 24.2074 11.0101V9.01012ZM14.7656 14.9014C12.5322 18.7042 11.4652 24.1684 11.446 31.1722L13.446 31.1776C13.4648 24.3177 14.519 19.2705 16.4901 15.9143L14.7656 14.9014ZM11.446 31.1708C11.4268 35.8729 11.896 39.8794 12.8801 43.1663L14.7961 42.5926C13.8862 39.5537 13.4273 35.7572 13.446 31.179L11.446 31.1708ZM12.8817 43.1715C13.8806 46.4425 15.3194 49.0082 17.2543 50.7767L18.6036 49.3004C17.0159 47.8492 15.7274 45.6422 14.7945 42.5874L12.8817 43.1715ZM17.2587 50.7806C19.2081 52.5414 21.5413 53.4249 24.2074 53.4249V51.4249C22.025 51.4249 20.1725 50.7175 18.5993 49.2964L17.2587 50.7806ZM50.0327 58.9022L49.6275 59.8164L49.6296 59.8173L50.0327 58.9022ZM42.5327 53.0499L43.3385 52.4577L42.5327 53.0499ZM39.6065 44.3851V43.3851H38.5713L38.6071 44.4198L39.6065 44.3851ZM50.2884 44.3851L51.2865 44.325L51.2299 43.3851H50.2884V44.3851ZM51.8509 48.5044L51.0724 49.1322L51.0775 49.1384L51.8509 48.5044ZM55.6293 51.2033L55.2502 52.1287L55.6293 51.2033ZM66.4531 51.0897L66.8613 52.0026L66.8701 51.9986L66.4531 51.0897ZM70.2315 48.0215L69.4106 47.4504L70.2315 48.0215ZM71.5668 43.5044L70.5668 43.4937L70.5667 43.5046L70.5668 43.5155L71.5668 43.5044ZM70.2031 38.8453L69.3801 39.4134L70.2031 38.8453ZM66.169 35.6919L65.7703 36.609L65.7739 36.6106L66.169 35.6919ZM54.7202 34.5556H53.7202V35.5556H54.7202V34.5556ZM54.7202 26.4306V25.4306H53.7202V26.4306H54.7202ZM65.1747 25.3794L64.7592 24.4698L64.7549 24.4718L65.1747 25.3794ZM68.7827 22.4249L69.6071 22.9909L69.611 22.9852L68.7827 22.4249ZM70.0611 17.9647L69.0611 17.9532L69.061 17.9645L69.0611 17.9759L70.0611 17.9647ZM68.9531 13.6749L68.0956 14.1894L68.1003 14.1972L68.1051 14.2049L68.9531 13.6749ZM65.7997 10.8056L65.3475 11.6975L65.3525 11.7L65.7997 10.8056ZM56.1122 10.7488L56.5034 11.6691L56.1122 10.7488ZM52.4474 13.5044L53.232 14.1245L53.2368 14.1184L52.4474 13.5044ZM50.9702 17.709V18.709H51.9359L51.9696 17.7438L50.9702 17.709ZM40.8281 17.709L39.8284 17.6857L39.8046 18.709H40.8281V17.709ZM43.6406 9.12944L42.834 8.53834L42.8332 8.53942L43.6406 9.12944ZM50.9134 3.33398L51.3284 4.24378L51.3331 4.24161L50.9134 3.33398ZM71.2259 3.41921L70.7716 4.3101L70.7786 4.31364L71.2259 3.41921ZM77.902 9.24307L77.061 9.78416L77.902 9.24307ZM80.2599 17.3397H79.2599L79.26 17.3454L80.2599 17.3397ZM77.3622 25.5783L76.6116 24.9175L76.6084 24.9212L77.3622 25.5783ZM69.7486 29.9249L69.5366 28.9476L68.7486 29.1185V29.9249H69.7486ZM69.7486 30.3794H68.7486V31.2501L69.611 31.3699L69.7486 30.3794ZM79.152 34.9249L78.403 35.5875L78.4084 35.5935L79.152 34.9249ZM82.419 44.0442L81.419 44.039V44.0442H82.419ZM79.6349 52.7942L78.8236 52.2096L78.8228 52.2107L79.6349 52.7942ZM72.0213 58.8169L71.6107 57.9051L71.6087 57.906L72.0213 58.8169ZM60.9418 60.0044C56.9654 60.0044 53.4701 59.3236 50.4358 57.987L49.6296 59.8173C52.9588 61.2838 56.7363 62.0044 60.9418 62.0044V60.0044ZM50.4378 57.9879C47.4155 56.6487 45.0609 54.8016 43.3385 52.4577L41.7268 53.6421C43.6787 56.2982 46.3241 58.3526 49.6275 59.8164L50.4378 57.9879ZM43.3385 52.4577C41.6275 50.1293 40.713 47.438 40.6059 44.3505L38.6071 44.4198C38.7273 47.8853 39.7636 50.9705 41.7268 53.6421L43.3385 52.4577ZM39.6065 45.3851H50.2884V43.3851H39.6065V45.3851ZM49.2902 44.4453C49.3968 46.215 49.989 47.7888 51.0724 49.1322L52.6293 47.8767C51.8187 46.8716 51.3693 45.6992 51.2865 44.325L49.2902 44.4453ZM51.0775 49.1384C52.1433 50.4387 53.546 51.4305 55.2502 52.1287L56.0083 50.2779C54.5686 49.6882 53.4523 48.8807 52.6242 47.8705L51.0775 49.1384ZM55.2502 52.1287C56.959 52.8287 58.8517 53.1692 60.9134 53.1692V51.1692C59.0735 51.1692 57.4435 50.8658 56.0083 50.2779L55.2502 52.1287ZM60.9134 53.1692C63.1121 53.1692 65.1018 52.7892 66.8613 52.0026L66.045 50.1767C64.5847 50.8296 62.8812 51.1692 60.9134 51.1692V53.1692ZM66.8701 51.9986C68.6236 51.194 70.0301 50.0621 71.0524 48.5926L69.4106 47.4504C68.6147 48.5945 67.5023 49.508 66.0361 50.1808L66.8701 51.9986ZM71.0524 48.5926C72.0889 47.1027 72.5878 45.3903 72.5667 43.4933L70.5668 43.5155C70.5836 45.0277 70.1924 46.3267 69.4106 47.4504L71.0524 48.5926ZM72.5667 43.5152C72.5877 41.5643 72.0808 39.8055 71.0262 38.2773L69.3801 39.4134C70.1815 40.5746 70.5837 41.9219 70.5668 43.4937L72.5667 43.5152ZM71.0262 38.2773C69.9739 36.7527 68.4678 35.5921 66.5641 34.7733L65.7739 36.6106C67.393 37.3069 68.5763 38.2486 69.3801 39.4134L71.0262 38.2773ZM66.5678 34.7749C64.6682 33.949 62.4227 33.5556 59.8622 33.5556V35.5556C62.226 35.5556 64.185 35.9197 65.7703 36.609L66.5678 34.7749ZM59.8622 33.5556H54.7202V35.5556H59.8622V33.5556ZM55.7202 34.5556V26.4306H53.7202V34.5556H55.7202ZM54.7202 27.4306H59.8622V25.4306H54.7202V27.4306ZM59.8622 27.4306C62.0033 27.4306 63.9227 27.0603 65.5945 26.2871L64.7549 24.4718C63.3964 25.1001 61.7742 25.4306 59.8622 25.4306V27.4306ZM65.5902 26.289C67.2729 25.5204 68.6235 24.4234 69.6071 22.9909L67.9583 21.8589C67.1994 22.9642 66.1447 23.837 64.7592 24.4698L65.5902 26.289ZM69.611 22.9852C70.6059 21.5144 71.082 19.8246 71.061 17.9534L69.0611 17.9759C69.078 19.4759 68.7019 20.7596 67.9544 21.8646L69.611 22.9852ZM71.061 17.9762C71.0818 16.167 70.6749 14.5429 69.8011 13.1449L68.1051 14.2049C68.7465 15.2311 69.0782 16.4668 69.0611 17.9532L71.061 17.9762ZM69.8106 13.1604C68.968 11.756 67.7696 10.6725 66.2469 9.91115L65.3525 11.7C66.5571 12.3023 67.461 13.1317 68.0956 14.1894L69.8106 13.1604ZM66.252 9.91367C64.7411 9.1476 62.9987 8.78284 61.0554 8.78284V10.7828C62.7485 10.7828 64.169 11.0999 65.3475 11.6975L66.252 9.91367ZM61.0554 8.78284C59.1517 8.78284 57.3697 9.12775 55.7211 9.82842L56.5034 11.6691C57.885 11.0819 59.3985 10.7828 61.0554 10.7828V8.78284ZM55.7211 9.82842C54.0636 10.5328 52.6998 11.5512 51.6581 12.8905L53.2368 14.1184C54.0512 13.0713 55.1305 12.2525 56.5034 11.6691L55.7211 9.82842ZM51.6629 12.8844C50.5908 14.2409 50.0343 15.8524 49.9708 17.6741L51.9696 17.7438C52.0196 16.308 52.448 15.1165 53.232 14.1245L51.6629 12.8844ZM50.9702 16.709H40.8281V18.709H50.9702V16.709ZM41.8279 17.7322C41.8992 14.664 42.7777 12.0052 44.448 9.71946L42.8332 8.53942C40.9051 11.1779 39.9086 14.2388 39.8284 17.6857L41.8279 17.7322ZM44.4472 9.72054C46.156 7.38874 48.4405 5.56139 51.3284 4.24377L50.4983 2.4242C47.3256 3.87172 44.7616 5.90801 42.834 8.53834L44.4472 9.72054ZM51.3331 4.24161C54.2159 2.90835 57.4695 2.23171 61.1122 2.23171V0.231709C57.217 0.231709 53.6715 0.956585 50.4936 2.42636L51.3331 4.24161ZM61.1122 2.23171C64.8696 2.23171 68.0789 2.93699 70.7716 4.31007L71.6801 2.52835C68.6531 0.984766 65.12 0.231709 61.1122 0.231709V2.23171ZM70.7786 4.31364C73.5146 5.68163 75.5964 7.50787 77.061 9.78416L78.743 8.70199C77.0636 6.09191 74.6946 4.03557 71.6731 2.52478L70.7786 4.31364ZM77.061 9.78416C78.5273 12.0631 79.2599 14.5735 79.2599 17.3397H81.2599C81.2599 14.1967 80.4206 11.3094 78.743 8.70199L77.061 9.78416ZM79.26 17.3454C79.2776 20.4057 78.3821 22.9064 76.6116 24.9175L78.1128 26.2391C80.2438 23.8184 81.2801 20.8266 81.2599 17.3339L79.26 17.3454ZM76.6084 24.9212C74.8315 26.9594 72.4912 28.3069 69.5366 28.9476L69.9605 30.9022C73.2939 30.1793 76.0293 28.629 78.116 26.2354L76.6084 24.9212ZM68.7486 29.9249V30.3794H70.7486V29.9249H68.7486ZM69.611 31.3699C73.528 31.914 76.4204 33.3463 78.403 35.5875L79.901 34.2623C77.5275 31.5792 74.151 29.9813 69.8861 29.3889L69.611 31.3699ZM78.4084 35.5935C80.4209 37.8315 81.4368 40.6226 81.4191 44.039L83.419 44.0494C83.4391 40.1931 82.2771 36.9046 79.8956 34.2562L78.4084 35.5935ZM81.419 44.0442C81.419 47.0978 80.5536 49.8088 78.8236 52.2096L80.4463 53.3788C82.4284 50.6281 83.419 47.5058 83.419 44.0442H81.419ZM78.8228 52.2107C77.101 54.6071 74.7099 56.5096 71.6107 57.9051L72.4319 59.7288C75.81 58.2076 78.4947 56.095 80.4471 53.3777L78.8228 52.2107ZM71.6087 57.906C68.5398 59.2961 64.9913 60.0044 60.9418 60.0044V62.0044C65.2256 62.0044 69.0635 61.2545 72.4339 59.7279L71.6087 57.906Z" fill="#6B7280" mask="url(#path-1-outside-1_389_2324)"/>
</g>
</svg>
