<svg width="86" height="63" viewBox="0 0 86 63" fill="none" xmlns="http://www.w3.org/2000/svg">
<g opacity="0.2">
<mask id="path-1-outside-1_389_2473" maskUnits="userSpaceOnUse" x="0" y="0.208984" width="86" height="63" fill="black">
<rect fill="white" y="0.208984" width="86" height="63"/>
<path d="M24.0355 61.3169C19.3575 61.3169 15.3423 60.1332 11.9901 57.7658C8.65672 55.3794 6.09044 51.9419 4.29119 47.4533C2.51089 42.9457 1.62074 37.5196 1.62074 31.1749C1.63968 24.8302 2.5393 19.4325 4.3196 14.9817C6.11884 10.512 8.68513 7.10292 12.0185 4.75444C15.3707 2.40595 19.3764 1.23171 24.0355 1.23171C28.6946 1.23171 32.7003 2.40595 36.0526 4.75444C39.4048 7.10292 41.9711 10.512 43.7514 14.9817C45.5507 19.4514 46.4503 24.8491 46.4503 31.1749C46.4503 37.5385 45.5507 42.9741 43.7514 47.4817C41.9711 51.9703 39.4048 55.3984 36.0526 57.7658C32.7192 60.1332 28.7135 61.3169 24.0355 61.3169ZM24.0355 52.4249C27.6719 52.4249 30.5412 50.6351 32.6435 47.0556C34.7647 43.4571 35.8253 38.1635 35.8253 31.1749C35.8253 26.5537 35.3423 22.6711 34.3764 19.5272C33.4105 16.3832 32.0469 14.0158 30.2855 12.4249C28.5241 10.815 26.4408 10.0101 24.0355 10.0101C20.4181 10.0101 17.5582 11.8094 15.456 15.4078C13.3537 18.9874 12.2931 24.2431 12.2741 31.1749C12.2552 35.815 12.7192 39.7166 13.6662 42.8794C14.6321 46.0423 15.9957 48.4287 17.7571 50.0385C19.5185 51.6294 21.6113 52.4249 24.0355 52.4249ZM38.8381 49.4135V41.0328L63.5256 2.02716H70.5142V13.959H66.2528L49.6335 40.2942V40.7488H84.0938V49.4135H38.8381ZM66.5938 60.209V46.8567L66.7074 43.1067V2.02716H76.6506V60.209H66.5938Z"/>
</mask>
<path d="M11.9901 57.7658L11.4079 58.5789L11.4132 58.5826L11.9901 57.7658ZM4.29119 47.4533L3.3611 47.8206L3.36299 47.8254L4.29119 47.4533ZM1.62074 31.1749L0.620739 31.1719V31.1749H1.62074ZM4.3196 14.9817L3.39194 14.6083L3.39113 14.6103L4.3196 14.9817ZM12.0185 4.75444L11.4447 3.93542L11.4425 3.93696L12.0185 4.75444ZM36.0526 4.75444L35.4788 5.57345L35.4788 5.57346L36.0526 4.75444ZM43.7514 14.9817L42.8224 15.3517L42.8238 15.3551L43.7514 14.9817ZM43.7514 47.4817L42.8227 47.111L42.8219 47.113L43.7514 47.4817ZM36.0526 57.7658L35.4757 56.949L35.4735 56.9505L36.0526 57.7658ZM32.6435 47.0556L31.782 46.5478L31.7812 46.5492L32.6435 47.0556ZM34.3764 19.5272L35.3323 19.2335L34.3764 19.5272ZM30.2855 12.4249L29.6109 13.163L29.6152 13.167L30.2855 12.4249ZM15.456 15.4078L16.3183 15.9143L16.3194 15.9123L15.456 15.4078ZM12.2741 31.1749L13.2741 31.179L13.2741 31.1776L12.2741 31.1749ZM13.6662 42.8794L12.7082 43.1663L12.7098 43.1715L13.6662 42.8794ZM17.7571 50.0385L17.0824 50.7767L17.0868 50.7806L17.7571 50.0385ZM24.0355 60.3169C19.5341 60.3169 15.7275 59.181 12.5669 56.949L11.4132 58.5826C14.9572 61.0854 19.1809 62.3169 24.0355 62.3169V60.3169ZM12.5722 56.9527C9.41994 54.696 6.96064 51.4252 5.2194 47.0812L3.36299 47.8254C5.22024 52.4587 7.8935 56.0629 11.4079 58.5789L12.5722 56.9527ZM5.22128 47.086C3.49902 42.7253 2.62074 37.4307 2.62074 31.1749H0.620739C0.620739 37.6085 1.52276 43.1661 3.36111 47.8206L5.22128 47.086ZM2.62073 31.1779C2.63941 24.9208 3.52712 19.6555 5.24808 15.3531L3.39113 14.6103C1.55147 19.2094 0.639944 24.7396 0.620743 31.1719L2.62073 31.1779ZM5.24726 15.3551C6.98781 11.0312 9.44545 7.79052 12.5944 5.57192L11.4425 3.93696C7.92482 6.41533 5.24988 9.99279 3.39194 14.6083L5.24726 15.3551ZM12.5922 5.57345C15.7538 3.3586 19.5523 2.23171 24.0355 2.23171V0.231709C19.2006 0.231709 14.9877 1.45331 11.4447 3.93542L12.5922 5.57345ZM24.0355 2.23171C28.5187 2.23171 32.3173 3.3586 35.4788 5.57345L36.6263 3.93542C33.0833 1.45331 28.8705 0.231709 24.0355 0.231709V2.23171ZM35.4788 5.57346C38.6451 7.79164 41.1013 11.0307 42.8224 15.3517L44.6804 14.6117C42.8409 9.99329 40.1646 6.41421 36.6263 3.93542L35.4788 5.57346ZM42.8238 15.3551C44.5628 19.6754 45.4503 24.9391 45.4503 31.1749H47.4503C47.4503 24.7592 46.5385 19.2275 44.6791 14.6083L42.8238 15.3551ZM45.4503 31.1749C45.4503 37.449 44.5627 42.7518 42.8227 47.111L44.6802 47.8524C46.5386 43.1965 47.4503 37.628 47.4503 31.1749H45.4503ZM42.8219 47.113C41.1003 51.4537 38.6431 54.7121 35.4757 56.949L36.6294 58.5826C40.1666 56.0847 42.842 52.487 44.681 47.8504L42.8219 47.113ZM35.4735 56.9505C32.333 59.181 28.5371 60.3169 24.0355 60.3169V62.3169C28.89 62.3169 33.1054 61.0855 36.6316 58.5811L35.4735 56.9505ZM24.0355 53.4249C28.0827 53.4249 31.2543 51.3956 33.5058 47.562L31.7812 46.5492C29.8281 49.8747 27.2611 51.4249 24.0355 51.4249V53.4249ZM33.5049 47.5634C35.7589 43.7397 36.8253 38.2355 36.8253 31.1749H34.8253C34.8253 38.0915 33.7705 43.1745 31.782 46.5478L33.5049 47.5634ZM36.8253 31.1749C36.8253 26.4911 36.3366 22.5024 35.3323 19.2335L33.4205 19.8208C34.348 22.8398 34.8253 26.6163 34.8253 31.1749H36.8253ZM35.3323 19.2335C34.333 15.9807 32.8931 13.4326 30.9558 11.6828L29.6152 13.167C31.2006 14.599 32.4881 16.7858 33.4205 19.8208L35.3323 19.2335ZM30.9602 11.6868C29.0129 9.90696 26.6883 9.01012 24.0355 9.01012V11.0101C26.1933 11.0101 28.0354 11.7231 29.6109 13.163L30.9602 11.6868ZM24.0355 9.01012C20.0026 9.01012 16.8415 11.0537 14.5925 14.9034L16.3194 15.9123C18.2749 12.565 20.8336 11.0101 24.0355 11.0101V9.01012ZM14.5937 14.9014C12.3603 18.7042 11.2933 24.1684 11.2742 31.1722L13.2741 31.1776C13.2929 24.3177 14.3471 19.2705 16.3183 15.9143L14.5937 14.9014ZM11.2742 31.1708C11.255 35.8729 11.7241 39.8794 12.7082 43.1663L14.6242 42.5926C13.7143 39.5537 13.2555 35.7572 13.2741 31.179L11.2742 31.1708ZM12.7098 43.1715C13.7087 46.4425 15.1475 49.0082 17.0825 50.7767L18.4317 49.3004C16.844 47.8492 15.5555 45.6422 14.6226 42.5874L12.7098 43.1715ZM17.0868 50.7806C19.0363 52.5414 21.3695 53.4249 24.0355 53.4249V51.4249C21.8531 51.4249 20.0007 50.7175 18.4274 49.2964L17.0868 50.7806ZM38.8381 49.4135H37.8381V50.4135H38.8381V49.4135ZM38.8381 41.0328L37.9931 40.498L37.8381 40.743V41.0328H38.8381ZM63.5256 2.02716V1.02716H62.975L62.6806 1.49236L63.5256 2.02716ZM70.5142 2.02716H71.5142V1.02716H70.5142V2.02716ZM70.5142 13.959V14.959H71.5142V13.959H70.5142ZM66.2528 13.959V12.959H65.7014L65.4072 13.4253L66.2528 13.959ZM49.6335 40.2942L48.7878 39.7605L48.6335 40.0051V40.2942H49.6335ZM49.6335 40.7488H48.6335V41.7488H49.6335V40.7488ZM84.0938 40.7488H85.0938V39.7488H84.0938V40.7488ZM84.0938 49.4135V50.4135H85.0938V49.4135H84.0938ZM66.5938 60.209H65.5938V61.209H66.5938V60.209ZM66.5938 46.8567L65.5942 46.8264L65.5938 46.8416V46.8567H66.5938ZM66.7074 43.1067L67.7069 43.137L67.7074 43.1219V43.1067H66.7074ZM66.7074 2.02716V1.02716H65.7074V2.02716H66.7074ZM76.6506 2.02716H77.6506V1.02716H76.6506V2.02716ZM76.6506 60.209V61.209H77.6506V60.209H76.6506ZM39.8381 49.4135V41.0328H37.8381V49.4135H39.8381ZM39.683 41.5676L64.3705 2.56197L62.6806 1.49236L37.9931 40.498L39.683 41.5676ZM63.5256 3.02716H70.5142V1.02716H63.5256V3.02716ZM69.5142 2.02716V13.959H71.5142V2.02716H69.5142ZM70.5142 12.959H66.2528V14.959H70.5142V12.959ZM65.4072 13.4253L48.7878 39.7605L50.4792 40.8279L67.0985 14.4927L65.4072 13.4253ZM48.6335 40.2942V40.7488H50.6335V40.2942H48.6335ZM49.6335 41.7488H84.0938V39.7488H49.6335V41.7488ZM83.0938 40.7488V49.4135H85.0938V40.7488H83.0938ZM84.0938 48.4135H38.8381V50.4135H84.0938V48.4135ZM67.5938 60.209V46.8567H65.5938V60.209H67.5938ZM67.5933 46.887L67.7069 43.137L65.7078 43.0764L65.5942 46.8264L67.5933 46.887ZM67.7074 43.1067V2.02716H65.7074V43.1067H67.7074ZM66.7074 3.02716H76.6506V1.02716H66.7074V3.02716ZM75.6506 2.02716V60.209H77.6506V2.02716H75.6506ZM76.6506 59.209H66.5938V61.209H76.6506V59.209Z" fill="#6B7280" mask="url(#path-1-outside-1_389_2473)"/>
</g>
</svg>
