<svg width="82" height="63" viewBox="0 0 82 63" fill="none" xmlns="http://www.w3.org/2000/svg">
<g opacity="0.2">
<mask id="path-1-outside-1_389_2548" maskUnits="userSpaceOnUse" x="0" y="0.208984" width="82" height="63" fill="black">
<rect fill="white" y="0.208984" width="82" height="63"/>
<path d="M23.6918 61.3169C19.0137 61.3169 14.9986 60.1332 11.6463 57.7658C8.31297 55.3794 5.74669 51.9419 3.94744 47.4533C2.16714 42.9457 1.27699 37.5196 1.27699 31.1749C1.29593 24.8302 2.19555 19.4325 3.97585 14.9817C5.77509 10.512 8.34138 7.10292 11.6747 4.75444C15.027 2.40595 19.0327 1.23171 23.6918 1.23171C28.3509 1.23171 32.3565 2.40595 35.7088 4.75444C39.0611 7.10292 41.6274 10.512 43.4077 14.9817C45.2069 19.4514 46.1065 24.8491 46.1065 31.1749C46.1065 37.5385 45.2069 42.9741 43.4077 47.4817C41.6274 51.9703 39.0611 55.3984 35.7088 57.7658C32.3755 60.1332 28.3698 61.3169 23.6918 61.3169ZM23.6918 52.4249C27.3281 52.4249 30.1974 50.6351 32.2997 47.0556C34.4209 43.4571 35.4815 38.1635 35.4815 31.1749C35.4815 26.5537 34.9986 22.6711 34.0327 19.5272C33.0668 16.3832 31.7031 14.0158 29.9418 12.4249C28.1804 10.815 26.0971 10.0101 23.6918 10.0101C20.0743 10.0101 17.2145 11.8094 15.1122 15.4078C13.0099 18.9874 11.9493 24.2431 11.9304 31.1749C11.9115 35.815 12.3755 39.7166 13.3224 42.8794C14.2884 46.0423 15.652 48.4287 17.4134 50.0385C19.1747 51.6294 21.2675 52.4249 23.6918 52.4249ZM59.7727 61.0044C55.9848 61.0044 52.5947 60.2942 49.6023 58.8738C46.6098 57.4344 44.233 55.4647 42.4716 52.9647C40.7292 50.4647 39.8011 47.6048 39.6875 44.3851H49.9148C50.1042 46.7715 51.1364 48.7222 53.0114 50.2374C54.8864 51.7336 57.1402 52.4817 59.7727 52.4817C61.8371 52.4817 63.6742 52.0082 65.2841 51.0613C66.8939 50.1143 68.1629 48.798 69.0909 47.1124C70.0189 45.4268 70.4735 43.5044 70.4545 41.3453C70.4735 39.1484 70.0095 37.1976 69.0625 35.4931C68.1155 33.7885 66.8182 32.4533 65.1705 31.4874C63.5227 30.5025 61.6288 30.0101 59.4886 30.0101C57.7462 29.9912 56.0322 30.3132 54.3466 30.976C52.661 31.6389 51.3258 32.5101 50.3409 33.5897L40.8239 32.0272L43.8636 2.02716H77.6136V10.834H52.5852L50.9091 26.2601H51.25C52.3295 24.9912 53.8542 23.94 55.8239 23.1067C57.7936 22.2544 59.9527 21.8283 62.3011 21.8283C65.8239 21.8283 68.9678 22.6616 71.733 24.3283C74.4981 25.976 76.6761 28.2488 78.267 31.1465C79.858 34.0442 80.6534 37.3586 80.6534 41.0897C80.6534 44.9344 79.7633 48.3624 77.983 51.3738C76.2216 54.3662 73.7689 56.7241 70.625 58.4476C67.5 60.1522 63.8826 61.0044 59.7727 61.0044Z"/>
</mask>
<path d="M11.6463 57.7658L11.0642 58.5789L11.0694 58.5826L11.6463 57.7658ZM3.94744 47.4533L3.01735 47.8206L3.01924 47.8254L3.94744 47.4533ZM1.27699 31.1749L0.276989 31.1719V31.1749H1.27699ZM3.97585 14.9817L3.04819 14.6083L3.04738 14.6103L3.97585 14.9817ZM11.6747 4.75444L11.1009 3.93542L11.0988 3.93696L11.6747 4.75444ZM35.7088 4.75444L35.135 5.57345L35.135 5.57346L35.7088 4.75444ZM43.4077 14.9817L42.4786 15.3517L42.48 15.3551L43.4077 14.9817ZM43.4077 47.4817L42.4789 47.111L42.4781 47.113L43.4077 47.4817ZM35.7088 57.7658L35.1319 56.949L35.1298 56.9505L35.7088 57.7658ZM32.2997 47.0556L31.4382 46.5478L31.4374 46.5492L32.2997 47.0556ZM34.0327 19.5272L34.9886 19.2335L34.0327 19.5272ZM29.9418 12.4249L29.2671 13.163L29.2715 13.167L29.9418 12.4249ZM15.1122 15.4078L15.9745 15.9143L15.9757 15.9123L15.1122 15.4078ZM11.9304 31.1749L12.9304 31.179L12.9304 31.1776L11.9304 31.1749ZM13.3224 42.8794L12.3644 43.1663L12.366 43.1715L13.3224 42.8794ZM17.4134 50.0385L16.7387 50.7767L16.7431 50.7806L17.4134 50.0385ZM23.6918 60.3169C19.1903 60.3169 15.3838 59.181 12.2232 56.949L11.0694 58.5826C14.6134 61.0854 18.8371 62.3169 23.6918 62.3169V60.3169ZM12.2284 56.9527C9.07619 54.696 6.61689 51.4252 4.87565 47.0812L3.01924 47.8254C4.87649 52.4587 7.54975 56.0629 11.0642 58.5789L12.2284 56.9527ZM4.87753 47.086C3.15527 42.7253 2.27699 37.4307 2.27699 31.1749H0.276989C0.276989 37.6085 1.17901 43.1661 3.01736 47.8206L4.87753 47.086ZM2.27698 31.1779C2.29566 24.9208 3.18337 19.6555 4.90433 15.3531L3.04738 14.6103C1.20772 19.2094 0.296194 24.7396 0.276993 31.1719L2.27698 31.1779ZM4.90351 15.3551C6.64406 11.0312 9.1017 7.79052 12.2507 5.57192L11.0988 3.93696C7.58107 6.41533 4.90613 9.99279 3.04819 14.6083L4.90351 15.3551ZM12.2485 5.57345C15.41 3.3586 19.2085 2.23171 23.6918 2.23171V0.231709C18.8568 0.231709 14.644 1.45331 11.1009 3.93542L12.2485 5.57345ZM23.6918 2.23171C28.175 2.23171 31.9735 3.3586 35.135 5.57345L36.2826 3.93542C32.7396 1.45331 28.5267 0.231709 23.6918 0.231709V2.23171ZM35.135 5.57346C38.3013 7.79164 40.7576 11.0307 42.4787 15.3517L44.3367 14.6117C42.4972 9.99329 39.8208 6.41421 36.2826 3.93542L35.135 5.57346ZM42.48 15.3551C44.2191 19.6754 45.1065 24.9391 45.1065 31.1749H47.1065C47.1065 24.7592 46.1947 19.2275 44.3353 14.6083L42.48 15.3551ZM45.1065 31.1749C45.1065 37.449 44.219 42.7518 42.4789 47.111L44.3364 47.8524C46.1949 43.1965 47.1065 37.628 47.1065 31.1749H45.1065ZM42.4781 47.113C40.7565 51.4537 38.2993 54.7121 35.1319 56.949L36.2857 58.5826C39.8228 56.0847 42.4982 52.487 44.3372 47.8504L42.4781 47.113ZM35.1298 56.9505C31.9893 59.181 28.1933 60.3169 23.6918 60.3169V62.3169C28.5463 62.3169 32.7617 61.0855 36.2879 58.5811L35.1298 56.9505ZM23.6918 53.4249C27.7389 53.4249 30.9105 51.3956 33.162 47.562L31.4374 46.5492C29.4843 49.8747 26.9173 51.4249 23.6918 51.4249V53.4249ZM33.1612 47.5634C35.4151 43.7397 36.4815 38.2355 36.4815 31.1749H34.4815C34.4815 38.0915 33.4267 43.1745 31.4383 46.5478L33.1612 47.5634ZM36.4815 31.1749C36.4815 26.4911 35.9929 22.5024 34.9886 19.2335L33.0768 19.8208C34.0043 22.8398 34.4815 26.6163 34.4815 31.1749H36.4815ZM34.9886 19.2335C33.9892 15.9807 32.5494 13.4326 30.612 11.6828L29.2715 13.167C30.8569 14.599 32.1443 16.7858 33.0768 19.8208L34.9886 19.2335ZM30.6164 11.6868C28.6691 9.90696 26.3445 9.01012 23.6918 9.01012V11.0101C25.8496 11.0101 27.6917 11.7231 29.2671 13.163L30.6164 11.6868ZM23.6918 9.01012C19.6588 9.01012 16.4978 11.0537 14.2488 14.9034L15.9757 15.9123C17.9312 12.565 20.4899 11.0101 23.6918 11.0101V9.01012ZM14.2499 14.9014C12.0165 18.7042 10.9495 24.1684 10.9304 31.1722L12.9304 31.1776C12.9491 24.3177 14.0034 19.2705 15.9745 15.9143L14.2499 14.9014ZM10.9304 31.1708C10.9112 35.8729 11.3804 39.8794 12.3645 43.1663L14.2804 42.5926C13.3706 39.5537 12.9117 35.7572 12.9304 31.179L10.9304 31.1708ZM12.366 43.1715C13.365 46.4425 14.8037 49.0082 16.7387 50.7767L18.088 49.3004C16.5002 47.8492 15.2117 45.6422 14.2788 42.5874L12.366 43.1715ZM16.7431 50.7806C18.6925 52.5414 21.0257 53.4249 23.6918 53.4249V51.4249C21.5093 51.4249 19.6569 50.7175 18.0836 49.2964L16.7431 50.7806ZM49.6023 58.8738L49.1688 59.7749L49.1735 59.7771L49.6023 58.8738ZM42.4716 52.9647L41.6512 53.5365L41.6541 53.5406L42.4716 52.9647ZM39.6875 44.3851V43.3851H38.6516L38.6881 44.4204L39.6875 44.3851ZM49.9148 44.3851L50.9116 44.306L50.8386 43.3851H49.9148V44.3851ZM53.0114 50.2374L52.3828 51.0152L52.3876 51.019L53.0114 50.2374ZM65.2841 51.0613L65.7911 51.9232V51.9232L65.2841 51.0613ZM70.4545 41.3453L69.4546 41.3367L69.4545 41.3454L69.4546 41.3541L70.4545 41.3453ZM69.0625 35.4931L68.1883 35.9787L69.0625 35.4931ZM65.1705 31.4874L64.6574 32.3458L64.6647 32.3501L65.1705 31.4874ZM59.4886 30.0101L59.4778 31.0101H59.4886V30.0101ZM54.3466 30.976L53.9806 30.0454L54.3466 30.976ZM50.3409 33.5897L50.1789 34.5765L50.7141 34.6643L51.0797 34.2636L50.3409 33.5897ZM40.8239 32.0272L39.829 31.9264L39.7342 32.8616L40.6619 33.014L40.8239 32.0272ZM43.8636 2.02716V1.02716H42.9598L42.8687 1.92636L43.8636 2.02716ZM77.6136 2.02716H78.6136V1.02716H77.6136V2.02716ZM77.6136 10.834V11.834H78.6136V10.834H77.6136ZM52.5852 10.834V9.83398H51.688L51.5911 10.726L52.5852 10.834ZM50.9091 26.2601L49.9149 26.1521L49.7945 27.2601H50.9091V26.2601ZM51.25 26.2601V27.2601H51.7122L52.0117 26.9081L51.25 26.2601ZM55.8239 23.1067L56.2135 24.0277L56.221 24.0245L55.8239 23.1067ZM71.733 24.3283L71.2167 25.1848L71.2211 25.1873L71.733 24.3283ZM78.267 31.1465L77.3905 31.6277L78.267 31.1465ZM77.983 51.3738L77.1221 50.8648L77.1212 50.8665L77.983 51.3738ZM70.625 58.4476L71.1039 59.3255L71.1057 59.3245L70.625 58.4476ZM59.7727 60.0044C56.1119 60.0044 52.8715 59.3187 50.0311 57.9704L49.1735 59.7771C52.3179 61.2698 55.8578 62.0044 59.7727 62.0044V60.0044ZM50.0357 57.9726C47.1834 56.6006 44.9439 54.7375 43.2891 52.3887L41.6541 53.5406C43.522 56.1918 46.0363 58.2682 49.1688 59.7749L50.0357 57.9726ZM43.292 52.3929C41.666 50.06 40.7941 47.3888 40.6869 44.3498L38.6881 44.4204C38.8081 47.8209 39.7923 50.8693 41.6512 53.5365L43.292 52.3929ZM39.6875 45.3851H49.9148V43.3851H39.6875V45.3851ZM48.9179 44.4642C49.1292 47.1263 50.2961 49.3289 52.3828 51.0152L53.6399 49.4596C51.9766 48.1156 51.0791 46.4166 50.9116 44.306L48.9179 44.4642ZM52.3876 51.019C54.4573 52.6706 56.937 53.4817 59.7727 53.4817V51.4817C57.3433 51.4817 55.3154 50.7966 53.6351 49.4558L52.3876 51.019ZM59.7727 53.4817C61.9961 53.4817 64.0118 52.9699 65.7911 51.9232L64.7771 50.1993C63.3367 51.0466 61.6781 51.4817 59.7727 51.4817V53.4817ZM65.7911 51.9232C67.5607 50.8823 68.955 49.4327 69.9669 47.5947L68.2149 46.6301C67.3708 48.1633 66.2272 49.3463 64.7771 50.1993L65.7911 51.9232ZM69.9669 47.5947C70.9874 45.7411 71.4748 43.6459 71.4545 41.3366L69.4546 41.3541C69.4722 43.363 69.0504 45.1125 68.2149 46.6301L69.9669 47.5947ZM71.4545 41.354C71.4747 39.0065 70.9778 36.8815 69.9367 35.0074L68.1883 35.9787C69.0412 37.5138 69.4722 39.2903 69.4546 41.3367L71.4545 41.354ZM69.9367 35.0074C68.9047 33.1499 67.4816 31.683 65.6762 30.6247L64.6647 32.3501C66.1548 33.2236 67.3263 34.4271 68.1883 35.9787L69.9367 35.0074ZM65.6835 30.629C63.8634 29.5411 61.7882 29.0101 59.4886 29.0101V31.0101C61.4694 31.0101 63.1821 31.464 64.6574 32.3458L65.6835 30.629ZM59.4995 29.0102C57.6231 28.9898 55.7814 29.3372 53.9806 30.0454L54.7126 31.9067C56.283 31.2891 57.8693 30.9926 59.4778 31.0101L59.4995 29.0102ZM53.9806 30.0454C52.1861 30.7511 50.7117 31.6995 49.6021 32.9157L51.0797 34.2636C51.9398 33.3208 53.1359 32.5267 54.7126 31.9067L53.9806 30.0454ZM50.5029 32.6029L40.9859 31.0404L40.6619 33.014L50.1789 34.5765L50.5029 32.6029ZM41.8188 32.128L44.8585 2.12797L42.8687 1.92636L39.829 31.9264L41.8188 32.128ZM43.8636 3.02716H77.6136V1.02716H43.8636V3.02716ZM76.6136 2.02716V10.834H78.6136V2.02716H76.6136ZM77.6136 9.83398H52.5852V11.834H77.6136V9.83398ZM51.5911 10.726L49.9149 26.1521L51.9032 26.3681L53.5794 10.942L51.5911 10.726ZM50.9091 27.2601H51.25V25.2601H50.9091V27.2601ZM52.0117 26.9081C52.9657 25.7867 54.3479 24.817 56.2135 24.0277L55.4342 22.1857C53.3604 23.0631 51.6934 24.1956 50.4883 25.6121L52.0117 26.9081ZM56.221 24.0245C58.0539 23.2314 60.0763 22.8283 62.3011 22.8283V20.8283C59.829 20.8283 57.5332 21.2775 55.4268 22.1889L56.221 24.0245ZM62.3011 22.8283C65.6591 22.8283 68.6214 23.6205 71.2167 25.1848L72.2492 23.4718C69.3142 21.7028 65.9887 20.8283 62.3011 20.8283V22.8283ZM71.2211 25.1873C73.8289 26.7413 75.8829 28.8818 77.3905 31.6277L79.1436 30.6652C77.4694 27.6157 75.1673 25.2107 72.2449 23.4693L71.2211 25.1873ZM77.3905 31.6277C78.8904 34.3599 79.6534 37.5049 79.6534 41.0897H81.6534C81.6534 37.2123 80.8255 33.7286 79.1436 30.6652L77.3905 31.6277ZM79.6534 41.0897C79.6534 44.7736 78.8025 48.0226 77.1221 50.8648L78.8438 51.8827C80.7241 48.7022 81.6534 45.0951 81.6534 41.0897H79.6534ZM77.1212 50.8665C75.4543 53.6984 73.1356 55.9309 70.1443 57.5707L71.1057 59.3245C74.4023 57.5173 76.9889 55.034 78.8447 51.881L77.1212 50.8665ZM70.1461 57.5697C67.1893 59.1825 63.7413 60.0044 59.7727 60.0044V62.0044C64.0238 62.0044 67.8107 61.1218 71.1039 59.3255L70.1461 57.5697Z" fill="#6B7280" mask="url(#path-1-outside-1_389_2548)"/>
</g>
</svg>
