<svg width="83" height="63" viewBox="0 0 83 63" fill="none" xmlns="http://www.w3.org/2000/svg">
<g opacity="0.2">
<mask id="path-1-outside-1_389_7437" maskUnits="userSpaceOnUse" x="0" y="0.208984" width="83" height="63" fill="black">
<rect fill="white" y="0.208984" width="83" height="63"/>
<path d="M23.4418 61.3169C18.7637 61.3169 14.7486 60.1332 11.3963 57.7658C8.06297 55.3794 5.49669 51.9419 3.69744 47.4533C1.91714 42.9457 1.02699 37.5196 1.02699 31.1749C1.04593 24.8302 1.94555 19.4325 3.72585 14.9817C5.52509 10.512 8.09138 7.10292 11.4247 4.75444C14.777 2.40595 18.7827 1.23171 23.4418 1.23171C28.1009 1.23171 32.1065 2.40595 35.4588 4.75444C38.8111 7.10292 41.3774 10.512 43.1577 14.9817C44.9569 19.4514 45.8565 24.8491 45.8565 31.1749C45.8565 37.5385 44.9569 42.9741 43.1577 47.4817C41.3774 51.9703 38.8111 55.3984 35.4588 57.7658C32.1255 60.1332 28.1198 61.3169 23.4418 61.3169ZM23.4418 52.4249C27.0781 52.4249 29.9474 50.6351 32.0497 47.0556C34.1709 43.4571 35.2315 38.1635 35.2315 31.1749C35.2315 26.5537 34.7486 22.6711 33.7827 19.5272C32.8168 16.3832 31.4531 14.0158 29.6918 12.4249C27.9304 10.815 25.8471 10.0101 23.4418 10.0101C19.8243 10.0101 16.9645 11.8094 14.8622 15.4078C12.7599 18.9874 11.6993 24.2431 11.6804 31.1749C11.6615 35.815 12.1255 39.7166 13.0724 42.8794C14.0384 46.0423 15.402 48.4287 17.1634 50.0385C18.9247 51.6294 21.0175 52.4249 23.4418 52.4249ZM60.6023 61.0044C57.8182 60.9855 55.1004 60.5025 52.4489 59.5556C49.7973 58.5897 47.411 57.0272 45.2898 54.8681C43.1686 52.69 41.483 49.8018 40.233 46.2033C38.983 42.5859 38.3674 38.1067 38.3864 32.7658C38.3864 27.7847 38.9167 23.3435 39.9773 19.4419C41.0379 15.5404 42.5625 12.245 44.5511 9.55557C46.5398 6.84724 48.9356 4.78285 51.7386 3.36239C54.5606 1.94194 57.714 1.23171 61.1989 1.23171C64.8542 1.23171 68.0928 1.95141 70.9148 3.3908C73.7557 4.83019 76.0474 6.79989 77.7898 9.29989C79.5322 11.781 80.6117 14.584 81.0284 17.709H70.6591C70.1288 15.4741 69.0398 13.6938 67.392 12.3681C65.7633 11.0234 63.6989 10.351 61.1989 10.351C57.1648 10.351 54.0587 12.1029 51.8807 15.6067C49.7216 19.1105 48.6326 23.9211 48.6136 30.0385H49.0114C49.9394 28.3719 51.142 26.9419 52.6193 25.7488C54.0966 24.5556 55.7633 23.637 57.6193 22.9931C59.4943 22.3302 61.4735 21.9988 63.5568 21.9988C66.9659 21.9988 70.0246 22.8132 72.733 24.4419C75.4602 26.0707 77.6193 28.315 79.2102 31.1749C80.8011 34.0158 81.5871 37.2734 81.5682 40.9476C81.5871 44.7734 80.7159 48.2109 78.9545 51.2601C77.1932 54.2904 74.7405 56.6768 71.5966 58.4192C68.4527 60.1616 64.7879 61.0234 60.6023 61.0044ZM60.5455 52.4817C62.6098 52.4817 64.4564 51.9798 66.0852 50.976C67.714 49.9722 69.0019 48.6181 69.9489 46.9135C70.8958 45.209 71.3598 43.2961 71.3409 41.1749C71.3598 39.0916 70.9053 37.2071 69.9773 35.5215C69.0682 33.8359 67.8087 32.5007 66.1989 31.5158C64.589 30.531 62.7519 30.0385 60.6875 30.0385C59.1534 30.0385 57.7235 30.3321 56.3977 30.9192C55.072 31.5063 53.9167 32.3207 52.9318 33.3624C51.947 34.3851 51.1705 35.5783 50.6023 36.9419C50.053 38.2866 49.7689 39.726 49.75 41.2601C49.7689 43.2866 50.2424 45.1522 51.1705 46.8567C52.0985 48.5613 53.3769 49.9249 55.0057 50.9476C56.6345 51.9703 58.4811 52.4817 60.5455 52.4817Z"/>
</mask>
<path d="M11.3963 57.7658L10.8142 58.5789L10.8194 58.5826L11.3963 57.7658ZM3.69744 47.4533L2.76735 47.8206L2.76924 47.8254L3.69744 47.4533ZM1.02699 31.1749L0.026989 31.1719V31.1749H1.02699ZM3.72585 14.9817L2.79819 14.6083L2.79738 14.6103L3.72585 14.9817ZM11.4247 4.75444L10.8509 3.93542L10.8488 3.93696L11.4247 4.75444ZM35.4588 4.75444L34.885 5.57345L34.885 5.57346L35.4588 4.75444ZM43.1577 14.9817L42.2286 15.3517L42.23 15.3551L43.1577 14.9817ZM43.1577 47.4817L42.2289 47.111L42.2281 47.113L43.1577 47.4817ZM35.4588 57.7658L34.8819 56.949L34.8798 56.9505L35.4588 57.7658ZM32.0497 47.0556L31.1882 46.5478L31.1874 46.5492L32.0497 47.0556ZM33.7827 19.5272L34.7386 19.2335L33.7827 19.5272ZM29.6918 12.4249L29.0171 13.163L29.0215 13.167L29.6918 12.4249ZM14.8622 15.4078L15.7245 15.9143L15.7257 15.9123L14.8622 15.4078ZM11.6804 31.1749L12.6804 31.179L12.6804 31.1776L11.6804 31.1749ZM13.0724 42.8794L12.1144 43.1663L12.116 43.1715L13.0724 42.8794ZM17.1634 50.0385L16.4887 50.7767L16.4931 50.7806L17.1634 50.0385ZM23.4418 60.3169C18.9403 60.3169 15.1338 59.181 11.9732 56.949L10.8194 58.5826C14.3634 61.0854 18.5871 62.3169 23.4418 62.3169V60.3169ZM11.9784 56.9527C8.82619 54.696 6.36689 51.4252 4.62565 47.0812L2.76924 47.8254C4.62649 52.4587 7.29975 56.0629 10.8142 58.5789L11.9784 56.9527ZM4.62753 47.086C2.90527 42.7253 2.02699 37.4307 2.02699 31.1749H0.026989C0.026989 37.6085 0.929009 43.1661 2.76736 47.8206L4.62753 47.086ZM2.02698 31.1779C2.04566 24.9208 2.93337 19.6555 4.65433 15.3531L2.79738 14.6103C0.957724 19.2094 0.0461941 24.7396 0.0269933 31.1719L2.02698 31.1779ZM4.65351 15.3551C6.39406 11.0312 8.8517 7.79052 12.0007 5.57192L10.8488 3.93696C7.33107 6.41533 4.65613 9.99279 2.79819 14.6083L4.65351 15.3551ZM11.9985 5.57345C15.16 3.3586 18.9585 2.23171 23.4418 2.23171V0.231709C18.6068 0.231709 14.394 1.45331 10.8509 3.93542L11.9985 5.57345ZM23.4418 2.23171C27.925 2.23171 31.7235 3.3586 34.885 5.57345L36.0326 3.93542C32.4896 1.45331 28.2767 0.231709 23.4418 0.231709V2.23171ZM34.885 5.57346C38.0513 7.79164 40.5076 11.0307 42.2287 15.3517L44.0867 14.6117C42.2472 9.99329 39.5708 6.41421 36.0326 3.93542L34.885 5.57346ZM42.23 15.3551C43.9691 19.6754 44.8565 24.9391 44.8565 31.1749H46.8565C46.8565 24.7592 45.9447 19.2275 44.0853 14.6083L42.23 15.3551ZM44.8565 31.1749C44.8565 37.449 43.969 42.7518 42.2289 47.111L44.0864 47.8524C45.9449 43.1965 46.8565 37.628 46.8565 31.1749H44.8565ZM42.2281 47.113C40.5065 51.4537 38.0493 54.7121 34.8819 56.949L36.0357 58.5826C39.5728 56.0847 42.2482 52.487 44.0872 47.8504L42.2281 47.113ZM34.8798 56.9505C31.7393 59.181 27.9433 60.3169 23.4418 60.3169V62.3169C28.2963 62.3169 32.5117 61.0855 36.0379 58.5811L34.8798 56.9505ZM23.4418 53.4249C27.4889 53.4249 30.6605 51.3956 32.912 47.562L31.1874 46.5492C29.2343 49.8747 26.6673 51.4249 23.4418 51.4249V53.4249ZM32.9112 47.5634C35.1651 43.7397 36.2315 38.2355 36.2315 31.1749H34.2315C34.2315 38.0915 33.1767 43.1745 31.1883 46.5478L32.9112 47.5634ZM36.2315 31.1749C36.2315 26.4911 35.7429 22.5024 34.7386 19.2335L32.8268 19.8208C33.7543 22.8398 34.2315 26.6163 34.2315 31.1749H36.2315ZM34.7386 19.2335C33.7392 15.9807 32.2994 13.4326 30.362 11.6828L29.0215 13.167C30.6069 14.599 31.8943 16.7858 32.8268 19.8208L34.7386 19.2335ZM30.3664 11.6868C28.4191 9.90696 26.0945 9.01012 23.4418 9.01012V11.0101C25.5996 11.0101 27.4417 11.7231 29.0171 13.163L30.3664 11.6868ZM23.4418 9.01012C19.4088 9.01012 16.2478 11.0537 13.9988 14.9034L15.7257 15.9123C17.6812 12.565 20.2399 11.0101 23.4418 11.0101V9.01012ZM13.9999 14.9014C11.7665 18.7042 10.6995 24.1684 10.6804 31.1722L12.6804 31.1776C12.6991 24.3177 13.7534 19.2705 15.7245 15.9143L13.9999 14.9014ZM10.6804 31.1708C10.6612 35.8729 11.1304 39.8794 12.1145 43.1663L14.0304 42.5926C13.1206 39.5537 12.6617 35.7572 12.6804 31.179L10.6804 31.1708ZM12.116 43.1715C13.115 46.4425 14.5537 49.0082 16.4887 50.7767L17.838 49.3004C16.2502 47.8492 14.9617 45.6422 14.0288 42.5874L12.116 43.1715ZM16.4931 50.7806C18.4425 52.5414 20.7757 53.4249 23.4418 53.4249V51.4249C21.2593 51.4249 19.4069 50.7175 17.8336 49.2964L16.4931 50.7806ZM60.6023 61.0044L60.5955 62.0044L60.5977 62.0044L60.6023 61.0044ZM52.4489 59.5556L52.1066 60.4952L52.1125 60.4973L52.4489 59.5556ZM45.2898 54.8681L44.5734 55.5658L44.5764 55.5689L45.2898 54.8681ZM40.233 46.2033L39.2878 46.5299L39.2883 46.5314L40.233 46.2033ZM38.3864 32.7658L39.3864 32.7693V32.7658H38.3864ZM39.9773 19.4419L40.9423 19.7043L39.9773 19.4419ZM44.5511 9.55557L45.3552 10.1501L45.3572 10.1474L44.5511 9.55557ZM51.7386 3.36239L51.289 2.46916L51.2866 2.47039L51.7386 3.36239ZM70.9148 3.3908L70.4604 4.28161L70.4628 4.28284L70.9148 3.3908ZM77.7898 9.2999L76.9694 9.87169L76.9714 9.87461L77.7898 9.2999ZM81.0284 17.709V18.709H82.1706L82.0196 17.5768L81.0284 17.709ZM70.6591 17.709L69.6861 17.9399L69.8686 18.709H70.6591V17.709ZM67.392 12.3681L66.7553 13.1393L66.7652 13.1472L67.392 12.3681ZM51.8807 15.6067L51.0314 15.0788L51.0293 15.0821L51.8807 15.6067ZM48.6136 30.0385L47.6136 30.0354L47.6105 31.0385H48.6136V30.0385ZM49.0114 30.0385V31.0385H49.5991L49.8851 30.525L49.0114 30.0385ZM57.6193 22.9931L57.9471 23.9378L57.9526 23.9359L57.6193 22.9931ZM72.733 24.4419L72.2176 25.2989L72.2202 25.3005L72.733 24.4419ZM79.2102 31.1749L78.3363 31.661L78.3377 31.6635L79.2102 31.1749ZM81.5682 40.9476L80.5681 40.9425L80.5682 40.9526L81.5682 40.9476ZM78.9545 51.2601L79.8191 51.7626L79.8205 51.7603L78.9545 51.2601ZM71.5966 58.4192L72.0813 59.2939L71.5966 58.4192ZM66.0852 50.976L65.5606 50.1247L66.0852 50.976ZM71.3409 41.1749L70.341 41.1658L70.3409 41.1748L70.341 41.1838L71.3409 41.1749ZM69.9773 35.5215L69.0971 35.9962L69.1013 36.0038L69.9773 35.5215ZM56.3977 30.9192L56.8027 31.8336L56.3977 30.9192ZM52.9318 33.3624L53.6522 34.0561L53.6585 34.0494L52.9318 33.3624ZM50.6023 36.9419L49.6792 36.5573L49.6765 36.5638L50.6023 36.9419ZM49.75 41.2601L48.7501 41.2478L48.7499 41.2586L48.75 41.2695L49.75 41.2601ZM51.1705 46.8567L52.0487 46.3785L51.1705 46.8567ZM55.0057 50.9476L54.4739 51.7945L55.0057 50.9476ZM60.6091 60.0045C57.9386 59.9863 55.3321 59.5235 52.7852 58.6138L52.1125 60.4973C54.8686 61.4816 57.6978 61.9847 60.5955 62.0044L60.6091 60.0045ZM52.7911 58.616C50.2895 57.7047 48.0277 56.228 46.0031 54.1673L44.5764 55.5689C46.7943 57.8264 49.3052 59.4747 52.1066 60.4952L52.7911 58.616ZM46.0062 54.1704C44.0097 52.1204 42.3913 49.3693 41.1776 45.8752L39.2883 46.5314C40.5746 50.2343 42.3275 53.2597 44.5734 55.5658L46.0062 54.1704ZM41.1781 45.8767C39.9762 42.3983 39.3677 38.0389 39.3864 32.7693L37.3864 32.7623C37.3672 38.1745 37.9897 42.7734 39.2878 46.5299L41.1781 45.8767ZM39.3864 32.7658C39.3864 27.8537 39.9095 23.5032 40.9423 19.7043L39.0123 19.1796C37.9238 23.1837 37.3864 27.7158 37.3864 32.7658H39.3864ZM40.9423 19.7043C41.9769 15.8982 43.454 12.7213 45.3552 10.1501L43.7471 8.96103C41.671 11.7687 40.0988 15.1827 39.0123 19.1796L40.9423 19.7043ZM45.3572 10.1474C47.2596 7.55655 49.5371 5.59908 52.1907 4.25439L51.2866 2.47039C48.3341 3.96661 45.82 6.13793 43.7451 8.96372L45.3572 10.1474ZM52.1882 4.25562C54.8568 2.91236 57.8538 2.23171 61.1989 2.23171V0.231709C57.5742 0.231709 54.2644 0.97151 51.289 2.46916L52.1882 4.25562ZM61.1989 2.23171C64.7206 2.23171 67.7994 2.9243 70.4604 4.28161L71.3691 2.49999C68.3863 0.978512 64.9877 0.231709 61.1989 0.231709V2.23171ZM70.4628 4.28284C73.1632 5.65104 75.3257 7.51342 76.9694 9.87169L78.6102 8.7281C76.769 6.08636 74.3481 4.00934 71.3667 2.49876L70.4628 4.28284ZM76.9714 9.87461C78.6178 12.2189 79.6409 14.8688 80.0372 17.8411L82.0196 17.5768C81.5826 14.2991 80.4466 11.343 78.6081 8.72517L76.9714 9.87461ZM81.0284 16.709H70.6591V18.709H81.0284V16.709ZM71.6321 17.4781C71.0552 15.0469 69.8549 13.0662 68.0189 11.589L66.7652 13.1472C68.2246 14.3215 69.2024 15.9013 69.6861 17.9399L71.6321 17.4781ZM68.0287 11.5969C66.1891 10.0782 63.8866 9.35103 61.1989 9.35103V11.351C63.5111 11.351 65.3374 11.9686 66.7554 13.1392L68.0287 11.5969ZM61.1989 9.35103C56.8097 9.35103 53.3869 11.2895 51.0314 15.0788L52.73 16.1346C54.7306 12.9163 57.5199 11.351 61.1989 11.351V9.35103ZM51.0293 15.0821C48.7375 18.8013 47.6329 23.8175 47.6136 30.0354L49.6136 30.0416C49.6323 24.0247 50.7057 19.4197 52.732 16.1313L51.0293 15.0821ZM48.6136 31.0385H49.0114V29.0385H48.6136V31.0385ZM49.8851 30.525C50.751 28.9698 51.8706 27.639 53.2477 26.5267L51.991 24.9708C50.4135 26.2449 49.1278 27.7739 48.1377 29.552L49.8851 30.525ZM53.2477 26.5267C54.632 25.4086 56.1963 24.5453 57.9471 23.9378L57.2915 22.0483C55.3302 22.7288 53.5612 23.7026 51.991 24.9708L53.2477 26.5267ZM57.9526 23.9359C59.7156 23.3126 61.5816 22.9988 63.5568 22.9988V20.9988C61.3654 20.9988 59.2731 21.3478 57.286 22.0503L57.9526 23.9359ZM63.5568 22.9988C66.7991 22.9988 69.6771 23.7711 72.2176 25.2989L73.2483 23.585C70.3722 21.8552 67.1327 20.9988 63.5568 20.9988V22.9988ZM72.2202 25.3005C74.7917 26.8363 76.8283 28.9501 78.3363 31.661L80.0841 30.6888C78.4104 27.68 76.1287 25.3052 73.2457 23.5834L72.2202 25.3005ZM78.3377 31.6635C79.8338 34.335 80.5864 37.4185 80.5682 40.9425L82.5682 40.9528C82.5879 37.1283 81.7685 33.6966 80.0827 30.6863L78.3377 31.6635ZM80.5682 40.9526C80.5863 44.6169 79.7537 47.8773 78.0886 50.7599L79.8205 51.7603C81.6781 48.5444 82.5879 44.9299 82.5682 40.9427L80.5682 40.9526ZM78.09 50.7576C76.4217 53.6277 74.1021 55.8873 71.1118 57.5446L72.0813 59.2939C75.3789 57.4663 77.9646 54.9531 79.8191 51.7626L78.09 50.7576ZM71.1118 57.5446C68.1406 59.1913 64.6496 60.0227 60.6068 60.0044L60.5977 62.0044C64.9261 62.024 68.7647 61.132 72.0813 59.2939L71.1118 57.5446ZM60.5455 53.4817C62.7799 53.4817 64.8109 52.936 66.6099 51.8273L65.5606 50.1247C64.102 51.0236 62.4398 51.4817 60.5455 51.4817V53.4817ZM66.6099 51.8273C68.3875 50.7318 69.7945 49.2505 70.823 47.3992L69.0747 46.4279C68.2093 47.9856 67.0406 49.2126 65.5606 50.1247L66.6099 51.8273ZM70.823 47.3992C71.8613 45.5303 72.3612 43.4445 72.3409 41.166L70.341 41.1838C70.3585 43.1477 69.9304 44.8876 69.0747 46.4279L70.823 47.3992ZM72.3409 41.184C72.3612 38.9436 71.8709 36.8875 70.8533 35.0392L69.1013 36.0038C69.9397 37.5266 70.3585 39.2396 70.341 41.1658L72.3409 41.184ZM70.8574 35.0468C69.8657 33.208 68.4837 31.7413 66.7207 30.6628L65.677 32.3688C67.1338 33.26 68.2706 34.4637 69.0971 35.9962L70.8574 35.0468ZM66.7207 30.6628C64.9392 29.5729 62.9182 29.0385 60.6875 29.0385V31.0385C62.5856 31.0385 64.2388 31.489 65.677 32.3688L66.7207 30.6628ZM60.6875 29.0385C59.0222 29.0385 57.4534 29.358 55.9928 30.0049L56.8027 31.8336C57.9936 31.3062 59.2846 31.0385 60.6875 31.0385V29.0385ZM55.9928 30.0049C54.5472 30.6451 53.2822 31.5362 52.2052 32.6754L53.6585 34.0494C54.5511 33.1052 55.5967 32.3676 56.8027 31.8336L55.9928 30.0049ZM52.2115 32.6688C51.137 33.7846 50.2932 35.0837 49.6792 36.5573L51.5254 37.3266C52.0477 36.0729 52.757 34.9856 53.6521 34.056L52.2115 32.6688ZM49.6765 36.5638C49.0772 38.0311 48.7705 39.5953 48.7501 41.2478L50.7499 41.2725C50.7674 39.8567 51.0289 38.5421 51.528 37.3201L49.6765 36.5638ZM48.75 41.2695C48.7704 43.4524 49.2823 45.4799 50.2922 47.3349L52.0487 46.3785C51.2026 44.8244 50.7674 43.1209 50.75 41.2508L48.75 41.2695ZM50.2922 47.3349C51.3014 49.1886 52.6985 50.6797 54.4739 51.7945L55.5374 50.1007C54.0552 49.17 52.8956 47.934 52.0487 46.3785L50.2922 47.3349ZM54.4739 51.7945C56.2738 52.9247 58.3073 53.4817 60.5455 53.4817V51.4817C58.6548 51.4817 56.9952 51.016 55.5374 50.1007L54.4739 51.7945Z" fill="#6B7280" mask="url(#path-1-outside-1_389_7437)"/>
</g>
</svg>
