<svg width="83" height="63" viewBox="0 0 83 63" fill="none" xmlns="http://www.w3.org/2000/svg">
<g opacity="0.2">
<mask id="path-1-outside-1_389_7971" maskUnits="userSpaceOnUse" x="0" y="0.208984" width="83" height="63" fill="black">
<rect fill="white" y="0.208984" width="83" height="63"/>
<path d="M23.6761 61.3169C18.9981 61.3169 14.983 60.1332 11.6307 57.7658C8.29735 55.3794 5.73106 51.9419 3.93182 47.4533C2.15152 42.9457 1.26136 37.5196 1.26136 31.1749C1.2803 24.8302 2.17992 19.4325 3.96023 14.9817C5.75947 10.512 8.32576 7.10292 11.6591 4.75444C15.0114 2.40595 19.017 1.23171 23.6761 1.23171C28.3352 1.23171 32.3409 2.40595 35.6932 4.75444C39.0455 7.10292 41.6117 10.512 43.392 14.9817C45.1913 19.4514 46.0909 24.8491 46.0909 31.1749C46.0909 37.5385 45.1913 42.9741 43.392 47.4817C41.6117 51.9703 39.0455 55.3984 35.6932 57.7658C32.3598 60.1332 28.3542 61.3169 23.6761 61.3169ZM23.6761 52.4249C27.3125 52.4249 30.1818 50.6351 32.2841 47.0556C34.4053 43.4571 35.4659 38.1635 35.4659 31.1749C35.4659 26.5537 34.983 22.6711 34.017 19.5272C33.0511 16.3832 31.6875 14.0158 29.9261 12.4249C28.1648 10.815 26.0814 10.0101 23.6761 10.0101C20.0587 10.0101 17.1989 11.8094 15.0966 15.4078C12.9943 18.9874 11.9337 24.2431 11.9148 31.1749C11.8958 35.815 12.3598 39.7166 13.3068 42.8794C14.2727 46.0423 15.6364 48.4287 17.3977 50.0385C19.1591 51.6294 21.2519 52.4249 23.6761 52.4249ZM60.2116 61.0044C55.9882 61.0044 52.2382 60.2942 48.9616 58.8738C45.7041 57.4533 43.1473 55.512 41.2912 53.0499C39.4541 50.5688 38.545 47.7563 38.5639 44.6124C38.545 42.1692 39.0753 39.9249 40.1548 37.8794C41.2344 35.834 42.6927 34.1294 44.5298 32.7658C46.3859 31.3832 48.4503 30.5025 50.723 30.1238V29.726C47.7306 29.0632 45.3063 27.5385 43.4503 25.1522C41.6132 22.7469 40.7041 19.9722 40.723 16.8283C40.7041 13.8359 41.5374 11.1654 43.223 8.81694C44.9086 6.46845 47.2192 4.62186 50.1548 3.27716C53.0904 1.91353 56.4427 1.23171 60.2116 1.23171C63.9427 1.23171 67.2666 1.91353 70.1832 3.27716C73.1188 4.62186 75.4295 6.46845 77.1151 8.81694C78.8196 11.1654 79.6719 13.8359 79.6719 16.8283C79.6719 19.9722 78.7344 22.7469 76.8594 25.1522C75.0033 27.5385 72.6075 29.0632 69.6719 29.726V30.1238C71.9446 30.5025 73.9901 31.3832 75.8082 32.7658C77.6454 34.1294 79.1037 35.834 80.1832 37.8794C81.2817 39.9249 81.831 42.1692 81.831 44.6124C81.831 47.7563 80.9029 50.5688 79.0469 53.0499C77.1908 55.512 74.634 57.4533 71.3764 58.8738C68.1378 60.2942 64.4162 61.0044 60.2116 61.0044ZM60.2116 52.8794C62.3897 52.8794 64.2836 52.5101 65.8935 51.7715C67.5033 51.0139 68.7533 49.9533 69.6435 48.5897C70.5336 47.226 70.9882 45.6541 71.0071 43.8738C70.9882 42.0177 70.5052 40.3794 69.5582 38.959C68.6302 37.5196 67.3518 36.3927 65.723 35.5783C64.1132 34.7639 62.276 34.3567 60.2116 34.3567C58.1283 34.3567 56.2723 34.7639 54.6435 35.5783C53.0147 36.3927 51.7268 37.5196 50.7798 38.959C49.8518 40.3794 49.3973 42.0177 49.4162 43.8738C49.3973 45.6541 49.8329 47.226 50.723 48.5897C51.6132 49.9344 52.8632 50.9855 54.473 51.7431C56.1018 52.5007 58.0147 52.8794 60.2116 52.8794ZM60.2116 26.3738C61.992 26.3738 63.5639 26.0139 64.9276 25.2942C66.3101 24.5745 67.3991 23.5707 68.1946 22.2828C68.9901 20.995 69.3973 19.5082 69.4162 17.8226C69.3973 16.156 68.9995 14.6976 68.223 13.4476C67.4465 12.1787 66.367 11.2033 64.9844 10.5215C63.6018 9.82072 62.0109 9.47034 60.2116 9.47034C58.3745 9.47034 56.7552 9.82072 55.3537 10.5215C53.9711 11.2033 52.8916 12.1787 52.1151 13.4476C51.3575 14.6976 50.9882 16.156 51.0071 17.8226C50.9882 19.5082 51.367 20.995 52.1435 22.2828C52.9389 23.5518 54.0279 24.5556 55.4105 25.2942C56.812 26.0139 58.4124 26.3738 60.2116 26.3738Z"/>
</mask>
<path d="M11.6307 57.7658L11.0486 58.5789L11.0538 58.5826L11.6307 57.7658ZM3.93182 47.4533L3.00172 47.8206L3.00361 47.8254L3.93182 47.4533ZM1.26136 31.1749L0.261364 31.1719V31.1749H1.26136ZM3.96023 14.9817L3.03256 14.6083L3.03175 14.6103L3.96023 14.9817ZM11.6591 4.75444L11.0853 3.93542L11.0831 3.93696L11.6591 4.75444ZM35.6932 4.75444L35.1194 5.57345L35.1194 5.57346L35.6932 4.75444ZM43.392 14.9817L42.463 15.3517L42.4644 15.3551L43.392 14.9817ZM43.392 47.4817L42.4633 47.111L42.4625 47.113L43.392 47.4817ZM35.6932 57.7658L35.1163 56.949L35.1141 56.9505L35.6932 57.7658ZM32.2841 47.0556L31.4226 46.5478L31.4218 46.5492L32.2841 47.0556ZM34.017 19.5272L34.9729 19.2335L34.017 19.5272ZM29.9261 12.4249L29.2515 13.163L29.2559 13.167L29.9261 12.4249ZM15.0966 15.4078L15.9589 15.9143L15.96 15.9123L15.0966 15.4078ZM11.9148 31.1749L12.9148 31.179L12.9148 31.1776L11.9148 31.1749ZM13.3068 42.8794L12.3488 43.1663L12.3504 43.1715L13.3068 42.8794ZM17.3977 50.0385L16.7231 50.7767L16.7274 50.7806L17.3977 50.0385ZM23.6761 60.3169C19.1747 60.3169 15.3681 59.181 12.2075 56.949L11.0538 58.5826C14.5978 61.0854 18.8215 62.3169 23.6761 62.3169V60.3169ZM12.2128 56.9527C9.06057 54.696 6.60126 51.4252 4.86002 47.0812L3.00361 47.8254C4.86086 52.4587 7.53413 56.0629 11.0486 58.5789L12.2128 56.9527ZM4.8619 47.086C3.13965 42.7253 2.26136 37.4307 2.26136 31.1749H0.261364C0.261364 37.6085 1.16338 43.1661 3.00173 47.8206L4.8619 47.086ZM2.26136 31.1779C2.28004 24.9208 3.16775 19.6555 4.8887 15.3531L3.03175 14.6103C1.1921 19.2094 0.280569 24.7396 0.261368 31.1719L2.26136 31.1779ZM4.88789 15.3551C6.62844 11.0312 9.08607 7.79052 12.235 5.57192L11.0831 3.93696C7.56544 6.41533 4.8905 9.99279 3.03257 14.6083L4.88789 15.3551ZM12.2329 5.57345C15.3944 3.3586 19.1929 2.23171 23.6761 2.23171V0.231709C18.8412 0.231709 14.6283 1.45331 11.0853 3.93542L12.2329 5.57345ZM23.6761 2.23171C28.1594 2.23171 31.9579 3.3586 35.1194 5.57345L36.267 3.93542C32.7239 1.45331 28.5111 0.231709 23.6761 0.231709V2.23171ZM35.1194 5.57346C38.2857 7.79164 40.7419 11.0307 42.463 15.3517L44.3211 14.6117C42.4815 9.99329 39.8052 6.41421 36.267 3.93542L35.1194 5.57346ZM42.4644 15.3551C44.2035 19.6754 45.0909 24.9391 45.0909 31.1749H47.0909C47.0909 24.7592 46.1791 19.2275 44.3197 14.6083L42.4644 15.3551ZM45.0909 31.1749C45.0909 37.449 44.2033 42.7518 42.4633 47.111L44.3208 47.8524C46.1793 43.1965 47.0909 37.628 47.0909 31.1749H45.0909ZM42.4625 47.113C40.7409 51.4537 38.2837 54.7121 35.1163 56.949L36.27 58.5826C39.8072 56.0847 42.4826 52.487 44.3216 47.8504L42.4625 47.113ZM35.1141 56.9505C31.9736 59.181 28.1777 60.3169 23.6761 60.3169V62.3169C28.5306 62.3169 32.7461 61.0855 36.2722 58.5811L35.1141 56.9505ZM23.6761 53.4249C27.7233 53.4249 30.8949 51.3956 33.1464 47.562L31.4218 46.5492C29.4687 49.8747 26.9017 51.4249 23.6761 51.4249V53.4249ZM33.1456 47.5634C35.3995 43.7397 36.4659 38.2355 36.4659 31.1749H34.4659C34.4659 38.0915 33.4111 43.1745 31.4226 46.5478L33.1456 47.5634ZM36.4659 31.1749C36.4659 26.4911 35.9773 22.5024 34.9729 19.2335L33.0611 19.8208C33.9887 22.8398 34.4659 26.6163 34.4659 31.1749H36.4659ZM34.9729 19.2335C33.9736 15.9807 32.5337 13.4326 30.5964 11.6828L29.2559 13.167C30.8413 14.599 32.1287 16.7858 33.0611 19.8208L34.9729 19.2335ZM30.6008 11.6868C28.6535 9.90696 26.3289 9.01012 23.6761 9.01012V11.0101C25.834 11.0101 27.6761 11.7231 29.2515 13.163L30.6008 11.6868ZM23.6761 9.01012C19.6432 9.01012 16.4822 11.0537 14.2331 14.9034L15.96 15.9123C17.9156 12.565 20.4742 11.0101 23.6761 11.0101V9.01012ZM14.2343 14.9014C12.0009 18.7042 10.9339 24.1684 10.9148 31.1722L12.9148 31.1776C12.9335 24.3177 13.9877 19.2705 15.9589 15.9143L14.2343 14.9014ZM10.9148 31.1708C10.8956 35.8729 11.3647 39.8794 12.3488 43.1663L14.2648 42.5926C13.3549 39.5537 12.8961 35.7572 12.9148 31.179L10.9148 31.1708ZM12.3504 43.1715C13.3493 46.4425 14.7881 49.0082 16.7231 50.7767L18.0724 49.3004C16.4846 47.8492 15.1961 45.6422 14.2632 42.5874L12.3504 43.1715ZM16.7274 50.7806C18.6769 52.5414 21.0101 53.4249 23.6761 53.4249V51.4249C21.4937 51.4249 19.6413 50.7175 18.068 49.2964L16.7274 50.7806ZM48.9616 58.8738L48.5619 59.7904L48.5639 59.7912L48.9616 58.8738ZM41.2912 53.0499L40.4875 53.645L40.4927 53.6519L41.2912 53.0499ZM38.5639 44.6124L39.564 44.6184L39.5639 44.6046L38.5639 44.6124ZM40.1548 37.8794L41.0392 38.3462L40.1548 37.8794ZM44.5298 32.7658L45.1259 33.5688L45.1272 33.5678L44.5298 32.7658ZM50.723 30.1238L50.8874 31.1101L51.723 30.9709V30.1238H50.723ZM50.723 29.726H51.723V28.9233L50.9393 28.7497L50.723 29.726ZM43.4503 25.1522L42.6555 25.7592L42.6609 25.7661L43.4503 25.1522ZM40.723 16.8283L41.7231 16.8343L41.723 16.822L40.723 16.8283ZM43.223 8.81694L44.0354 9.40004L43.223 8.81694ZM50.1548 3.27716L50.5713 4.18634L50.5761 4.18409L50.1548 3.27716ZM70.1832 3.27716L69.7597 4.18307L69.7668 4.18632L70.1832 3.27716ZM77.1151 8.81694L76.3026 9.40004L76.3058 9.40434L77.1151 8.81694ZM76.8594 25.1522L76.0707 24.5374L76.07 24.5382L76.8594 25.1522ZM69.6719 29.726L69.4516 28.7506L68.6719 28.9267V29.726H69.6719ZM69.6719 30.1238H68.6719V30.9709L69.5075 31.1101L69.6719 30.1238ZM75.8082 32.7658L75.2029 33.5619L75.2122 33.5688L75.8082 32.7658ZM80.1832 37.8794L79.2988 38.3462L79.3022 38.3526L80.1832 37.8794ZM79.0469 53.0499L79.8454 53.6519L79.8476 53.6489L79.0469 53.0499ZM71.3764 58.8738L70.9767 57.9571L70.9748 57.958L71.3764 58.8738ZM65.8935 51.7715L66.3105 52.6804L66.3193 52.6763L65.8935 51.7715ZM71.0071 43.8738L72.007 43.8844L72.0072 43.874L72.007 43.8636L71.0071 43.8738ZM69.5582 38.959L68.7178 39.5009L68.7219 39.5073L68.7262 39.5137L69.5582 38.959ZM65.723 35.5783L65.2716 36.4706L65.2758 36.4727L65.723 35.5783ZM54.6435 35.5783L55.0907 36.4727L54.6435 35.5783ZM50.7798 38.959L49.9444 38.4094L49.9427 38.412L50.7798 38.959ZM49.4162 43.8738L50.4161 43.8844L50.4162 43.874L50.4161 43.8636L49.4162 43.8738ZM50.723 48.5897L49.8856 49.1363L49.8892 49.1417L50.723 48.5897ZM54.473 51.7431L54.0472 52.6479L54.0513 52.6498L54.473 51.7431ZM64.9276 25.2942L64.4658 24.4072L64.4608 24.4098L64.9276 25.2942ZM68.1946 22.2828L67.3438 21.7574L68.1946 22.2828ZM69.4162 17.8226L70.4161 17.8339L70.4163 17.8226L70.4161 17.8113L69.4162 17.8226ZM68.223 13.4476L67.37 13.9696L67.3736 13.9753L68.223 13.4476ZM64.9844 10.5215L64.5322 11.4135L64.5421 11.4184L64.9844 10.5215ZM55.3537 10.5215L55.796 11.4184L55.8009 11.4159L55.3537 10.5215ZM52.1151 13.4476L51.2621 12.9257L51.2599 12.9293L52.1151 13.4476ZM51.0071 17.8226L52.007 17.8339L52.0072 17.8226L52.007 17.8113L51.0071 17.8226ZM52.1435 22.2828L51.2871 22.7992L51.2916 22.8066L51.2962 22.814L52.1435 22.2828ZM55.4105 25.2942L54.9393 26.1762L54.9465 26.1801L54.9537 26.1838L55.4105 25.2942ZM60.2116 60.0044C56.1004 60.0044 52.4896 59.3133 49.3594 57.9563L48.5639 59.7912C51.9867 61.2751 55.876 62.0044 60.2116 62.0044V60.0044ZM49.3613 57.9571C46.2372 56.5948 43.8272 54.7528 42.0897 52.4479L40.4927 53.6519C42.4673 56.2712 45.1709 58.3118 48.5619 59.7904L49.3613 57.9571ZM42.0949 52.4548C40.389 50.151 39.5462 47.5503 39.5639 44.6184L37.5639 44.6064C37.5437 47.9623 38.5191 50.9866 40.4875 53.645L42.0949 52.4548ZM39.5639 44.6046C39.5462 42.3171 40.0412 40.2372 41.0392 38.3462L39.2704 37.4127C38.1094 39.6126 37.5438 42.0213 37.5639 44.6201L39.5639 44.6046ZM41.0392 38.3462C42.0498 36.4315 43.4101 34.8423 45.1259 33.5688L43.9338 31.9628C41.9753 33.4166 40.419 35.2365 39.2704 37.4127L41.0392 38.3462ZM45.1272 33.5678C46.8563 32.2798 48.7724 31.4627 50.8874 31.1101L50.5586 29.1374C48.1282 29.5424 45.9155 30.4867 43.9325 31.9638L45.1272 33.5678ZM51.723 30.1238V29.726H49.723V30.1238H51.723ZM50.9393 28.7497C48.1708 28.1364 45.9506 26.738 44.2396 24.5382L42.6609 25.7661C44.6621 28.3391 47.2903 29.9899 50.5067 30.7024L50.9393 28.7497ZM44.245 24.5452C42.5478 22.3231 41.7053 19.7661 41.723 16.8343L39.723 16.8223C39.7028 20.1784 40.6785 23.1707 42.6556 25.7592L44.245 24.5452ZM41.723 16.822C41.7053 14.033 42.4776 11.5705 44.0354 9.40004L42.4106 8.23384C40.5972 10.7604 39.7028 13.6388 39.723 16.8346L41.723 16.822ZM44.0354 9.40004C45.6082 7.20879 47.7749 5.46726 50.5713 4.18632L49.7384 2.36801C46.6636 3.77646 44.2091 5.72812 42.4106 8.23384L44.0354 9.40004ZM50.5761 4.18409C53.3597 2.89105 56.5645 2.23171 60.2116 2.23171V0.231709C56.321 0.231709 52.8211 0.936007 49.7335 2.37024L50.5761 4.18409ZM60.2116 2.23171C63.8195 2.23171 66.9951 2.89051 69.7597 4.18305L70.6068 2.37128C67.538 0.936548 64.0659 0.231709 60.2116 0.231709V2.23171ZM69.7668 4.18632C72.5632 5.46726 74.7299 7.20879 76.3027 9.40004L77.9275 8.23384C76.129 5.72812 73.6745 3.77646 70.5997 2.36801L69.7668 4.18632ZM76.3058 9.40434C77.8823 11.5764 78.6719 14.0398 78.6719 16.8283H80.6719C80.6719 13.6319 79.7569 10.7544 77.9244 8.22955L76.3058 9.40434ZM78.6719 16.8283C78.6719 19.7569 77.8043 22.3135 76.0707 24.5374L77.6481 25.767C79.6645 23.1802 80.6719 20.1876 80.6719 16.8283H78.6719ZM76.07 24.5382C74.3554 26.7428 72.1603 28.139 69.4516 28.7506L69.8921 30.7015C73.0547 29.9873 75.6512 28.3343 77.6487 25.7661L76.07 24.5382ZM68.6719 29.726V30.1238H70.6719V29.726H68.6719ZM69.5075 31.1101C71.6214 31.4625 73.5153 32.2785 75.2029 33.5618L76.4135 31.9698C74.4649 30.488 72.2678 29.5426 69.8363 29.1374L69.5075 31.1101ZM75.2122 33.5688C76.9279 34.8423 78.2883 36.4315 79.2989 38.3462L81.0676 37.4127C79.9191 35.2365 78.3628 33.4166 76.4043 31.9628L75.2122 33.5688ZM79.3022 38.3526C80.3185 40.2449 80.831 42.3254 80.831 44.6124H82.831C82.831 42.013 82.245 39.6049 81.0642 37.4063L79.3022 38.3526ZM80.831 44.6124C80.831 47.5438 79.9708 50.1454 78.2461 52.4509L79.8476 53.6489C81.8351 50.9922 82.831 47.9689 82.831 44.6124H80.831ZM78.2484 52.4479C76.5108 54.7528 74.1008 56.5948 70.9767 57.9571L71.7761 59.7904C75.1672 58.3118 77.8708 56.2712 79.8454 53.6519L78.2484 52.4479ZM70.9748 57.958C67.8843 59.3134 64.3036 60.0044 60.2116 60.0044V62.0044C64.5288 62.0044 68.3912 61.275 71.7781 59.7895L70.9748 57.958ZM60.2116 53.8794C62.5013 53.8794 64.5433 53.4912 66.3105 52.6804L65.4764 50.8626C64.0239 51.5291 62.278 51.8794 60.2116 51.8794V53.8794ZM66.3193 52.6763C68.0808 51.8474 69.4801 50.6694 70.4809 49.1363L68.8061 48.043C68.0266 49.2372 66.9258 50.1805 65.4677 50.8667L66.3193 52.6763ZM70.4809 49.1363C71.4848 47.5983 71.9863 45.8367 72.007 43.8844L70.0072 43.8631C69.9901 45.4714 69.5825 46.8537 68.8061 48.043L70.4809 49.1363ZM72.007 43.8636C71.9863 41.8312 71.4542 40.0002 70.3903 38.4043L68.7262 39.5137C69.5562 40.7587 69.99 42.2042 70.0072 43.884L72.007 43.8636ZM70.3987 38.4171C69.3674 36.8175 67.9488 35.5732 66.1702 34.6839L65.2758 36.4727C66.7548 37.2122 67.8931 38.2217 68.7178 39.5009L70.3987 38.4171ZM66.1744 34.686C64.4057 33.7912 62.4101 33.3567 60.2116 33.3567V35.3567C62.1419 35.3567 63.8207 35.7366 65.2716 36.4706L66.1744 34.686ZM60.2116 33.3567C57.9955 33.3567 55.9827 33.7907 54.1963 34.6839L55.0907 36.4727C56.5618 35.7372 58.2611 35.3567 60.2116 35.3567V33.3567ZM54.1963 34.6839C52.4193 35.5724 50.9937 36.8144 49.9444 38.4094L51.6152 39.5086C52.4599 38.2248 53.6101 37.213 55.0907 36.4727L54.1963 34.6839ZM49.9427 38.412C48.8963 40.0135 48.3955 41.8496 48.4162 43.884L50.4161 43.8636C50.399 42.1858 50.8073 40.7453 51.617 39.5059L49.9427 38.412ZM48.4163 43.8631C48.3954 45.8219 48.8773 47.5916 49.8856 49.1363L51.5604 48.043C50.7884 46.8604 50.3991 45.4862 50.4161 43.8844L48.4163 43.8631ZM49.8892 49.1417C50.8907 50.6546 52.2892 51.8206 54.0472 52.6479L54.8988 50.8383C53.4371 50.1504 52.3356 49.2141 51.5569 48.0377L49.8892 49.1417ZM54.0513 52.6498C55.8383 53.4809 57.9008 53.8794 60.2116 53.8794V51.8794C58.1286 51.8794 56.3653 51.5203 54.8947 50.8364L54.0513 52.6498ZM60.2116 27.3738C62.1293 27.3738 63.866 26.9852 65.3943 26.1786L64.4608 24.4098C63.2618 25.0426 61.8546 25.3738 60.2116 25.3738V27.3738ZM65.3893 26.1812C66.9268 25.3809 68.1523 24.2543 69.0454 22.8083L67.3438 21.7574C66.646 22.8872 65.6935 23.7681 64.4658 24.4072L65.3893 26.1812ZM69.0454 22.8083C69.947 21.3487 70.3954 19.68 70.4161 17.8339L68.4163 17.8114C68.3991 19.3364 68.0332 20.6413 67.3438 21.7574L69.0454 22.8083ZM70.4161 17.8113C70.3954 15.9868 69.9576 14.3449 69.0725 12.9199L67.3736 13.9753C68.0414 15.0504 68.3991 16.3252 68.4163 17.834L70.4161 17.8113ZM69.076 12.9257C68.1971 11.4894 66.9724 10.3869 65.4267 9.62461L64.5421 11.4184C65.7615 12.0197 66.6959 12.868 67.37 13.9696L69.076 12.9257ZM65.4365 9.62952C63.8928 8.84713 62.1427 8.47034 60.2116 8.47034V10.4703C61.8791 10.4703 63.3108 10.7943 64.5323 11.4135L65.4365 9.62952ZM60.2116 8.47034C58.246 8.47034 56.4689 8.84585 54.9065 9.62706L55.8009 11.4159C57.0415 10.7956 58.5031 10.4703 60.2116 10.4703V8.47034ZM54.9114 9.62461C53.3657 10.3869 52.141 11.4894 51.2621 12.9257L52.968 13.9696C53.6421 12.868 54.5765 12.0197 55.796 11.4184L54.9114 9.62461ZM51.2599 12.9293C50.3926 14.3604 49.9864 16.0075 50.0072 17.834L52.007 17.8113C51.9899 16.3044 52.3224 15.0349 52.9703 13.9659L51.2599 12.9293ZM50.0072 17.8114C49.9864 19.6597 50.4034 21.3335 51.2871 22.7992L52.9998 21.7665C52.3305 20.6564 51.9899 19.3568 52.007 17.8339L50.0072 17.8114ZM51.2962 22.814C52.1886 24.2377 53.4104 25.3594 54.9393 26.1762L55.8817 24.4122C54.6455 23.7517 53.6892 22.8659 52.9908 21.7517L51.2962 22.814ZM54.9537 26.1838C56.5155 26.9858 58.2762 27.3738 60.2116 27.3738V25.3738C58.5486 25.3738 57.1086 25.0421 55.8673 24.4046L54.9537 26.1838Z" fill="#6B7280" mask="url(#path-1-outside-1_389_7971)"/>
</g>
</svg>
