<svg width="83" height="63" viewBox="0 0 83 63" fill="none" xmlns="http://www.w3.org/2000/svg">
<g opacity="0.2">
<mask id="path-1-outside-1_389_211" maskUnits="userSpaceOnUse" x="0" y="0.208984" width="83" height="63" fill="black">
<rect fill="white" y="0.208984" width="83" height="63"/>
<path d="M23.4418 61.3169C18.7637 61.3169 14.7486 60.1332 11.3963 57.7658C8.06297 55.3794 5.49669 51.9419 3.69744 47.4533C1.91714 42.9457 1.02699 37.5196 1.02699 31.1749C1.04593 24.8302 1.94555 19.4325 3.72585 14.9817C5.52509 10.512 8.09138 7.10292 11.4247 4.75444C14.777 2.40595 18.7827 1.23171 23.4418 1.23171C28.1009 1.23171 32.1065 2.40595 35.4588 4.75444C38.8111 7.10292 41.3774 10.512 43.1577 14.9817C44.9569 19.4514 45.8565 24.8491 45.8565 31.1749C45.8565 37.5385 44.9569 42.9741 43.1577 47.4817C41.3774 51.9703 38.8111 55.3984 35.4588 57.7658C32.1255 60.1332 28.1198 61.3169 23.4418 61.3169ZM23.4418 52.4249C27.0781 52.4249 29.9474 50.6351 32.0497 47.0556C34.1709 43.4571 35.2315 38.1635 35.2315 31.1749C35.2315 26.5537 34.7486 22.6711 33.7827 19.5272C32.8168 16.3832 31.4531 14.0158 29.6918 12.4249C27.9304 10.815 25.8471 10.0101 23.4418 10.0101C19.8243 10.0101 16.9645 11.8094 14.8622 15.4078C12.7599 18.9874 11.6993 24.2431 11.6804 31.1749C11.6615 35.815 12.1255 39.7166 13.0724 42.8794C14.0384 46.0423 15.402 48.4287 17.1634 50.0385C18.9247 51.6294 21.0175 52.4249 23.4418 52.4249ZM59.4943 1.23171C62.2784 1.25065 64.9867 1.74307 67.6193 2.70898C70.2708 3.65595 72.6572 5.20898 74.7784 7.36807C76.8996 9.50822 78.5852 12.3775 79.8352 15.976C81.0852 19.5745 81.7102 24.0253 81.7102 29.3283C81.7292 34.3283 81.1989 38.798 80.1193 42.7374C79.0587 46.6578 77.5341 49.9722 75.5455 52.6806C73.5568 55.3889 71.161 57.4533 68.358 58.8738C65.5549 60.2942 62.4015 61.0044 58.8977 61.0044C55.2235 61.0044 51.9659 60.2847 49.125 58.8453C46.303 57.406 44.0208 55.4363 42.2784 52.9363C40.536 50.4363 39.4659 47.5764 39.0682 44.3567H49.4375C49.9678 46.6673 51.0473 48.5044 52.6761 49.8681C54.3239 51.2128 56.3977 51.8851 58.8977 51.8851C62.9318 51.8851 66.0379 50.1332 68.2159 46.6294C70.3939 43.1257 71.483 38.2582 71.483 32.0272H71.0852C70.1572 33.6938 68.9545 35.1332 67.4773 36.3453C66 37.5385 64.3239 38.4571 62.4489 39.101C60.5928 39.745 58.6231 40.0669 56.5398 40.0669C53.1307 40.0669 50.0625 39.2525 47.3352 37.6238C44.6269 35.995 42.4773 33.7601 40.8864 30.9192C39.3144 28.0783 38.5189 24.8302 38.5 21.1749C38.5 17.387 39.3712 13.9874 41.1136 10.976C42.875 7.94573 45.3277 5.55936 48.4716 3.81694C51.6155 2.05557 55.2898 1.19383 59.4943 1.23171ZM59.5227 9.75444C57.4773 9.75444 55.6307 10.2563 53.983 11.2601C52.3542 12.245 51.0663 13.5897 50.1193 15.2942C49.1913 16.9798 48.7273 18.8643 48.7273 20.9476C48.7462 23.012 49.2102 24.887 50.1193 26.5726C51.0473 28.2582 52.3068 29.5935 53.8977 30.5783C55.5076 31.5632 57.3447 32.0556 59.4091 32.0556C60.9432 32.0556 62.3731 31.762 63.6989 31.1749C65.0246 30.5878 66.1799 29.7734 67.1648 28.7317C68.1686 27.6711 68.9451 26.4685 69.4943 25.1238C70.0625 23.7791 70.3371 22.3586 70.3182 20.8624C70.3182 18.8738 69.8447 17.0366 68.8977 15.351C67.9697 13.6654 66.6913 12.3113 65.0625 11.2885C63.4527 10.2658 61.6061 9.75444 59.5227 9.75444Z"/>
</mask>
<path d="M11.3963 57.7658L10.8142 58.5789L10.8194 58.5826L11.3963 57.7658ZM3.69744 47.4533L2.76735 47.8206L2.76924 47.8254L3.69744 47.4533ZM1.02699 31.1749L0.026989 31.1719V31.1749H1.02699ZM3.72585 14.9817L2.79819 14.6083L2.79738 14.6103L3.72585 14.9817ZM11.4247 4.75444L10.8509 3.93542L10.8488 3.93696L11.4247 4.75444ZM35.4588 4.75444L34.885 5.57345L34.885 5.57346L35.4588 4.75444ZM43.1577 14.9817L42.2286 15.3517L42.23 15.3551L43.1577 14.9817ZM43.1577 47.4817L42.2289 47.111L42.2281 47.113L43.1577 47.4817ZM35.4588 57.7658L34.8819 56.949L34.8798 56.9505L35.4588 57.7658ZM32.0497 47.0556L31.1882 46.5478L31.1874 46.5492L32.0497 47.0556ZM33.7827 19.5272L34.7386 19.2335L33.7827 19.5272ZM29.6918 12.4249L29.0171 13.163L29.0215 13.167L29.6918 12.4249ZM14.8622 15.4078L15.7245 15.9143L15.7257 15.9123L14.8622 15.4078ZM11.6804 31.1749L12.6804 31.179L12.6804 31.1776L11.6804 31.1749ZM13.0724 42.8794L12.1144 43.1663L12.116 43.1715L13.0724 42.8794ZM17.1634 50.0385L16.4887 50.7767L16.4931 50.7806L17.1634 50.0385ZM23.4418 60.3169C18.9403 60.3169 15.1338 59.181 11.9732 56.949L10.8194 58.5826C14.3634 61.0854 18.5871 62.3169 23.4418 62.3169V60.3169ZM11.9784 56.9527C8.82619 54.696 6.36689 51.4252 4.62565 47.0812L2.76924 47.8254C4.62649 52.4587 7.29975 56.0629 10.8142 58.5789L11.9784 56.9527ZM4.62753 47.086C2.90527 42.7253 2.02699 37.4307 2.02699 31.1749H0.026989C0.026989 37.6085 0.929009 43.1661 2.76736 47.8206L4.62753 47.086ZM2.02698 31.1779C2.04566 24.9208 2.93337 19.6555 4.65433 15.3531L2.79738 14.6103C0.957724 19.2094 0.0461941 24.7396 0.0269933 31.1719L2.02698 31.1779ZM4.65351 15.3551C6.39406 11.0312 8.8517 7.79052 12.0007 5.57192L10.8488 3.93696C7.33107 6.41533 4.65613 9.99279 2.79819 14.6083L4.65351 15.3551ZM11.9985 5.57345C15.16 3.3586 18.9585 2.23171 23.4418 2.23171V0.231709C18.6068 0.231709 14.394 1.45331 10.8509 3.93542L11.9985 5.57345ZM23.4418 2.23171C27.925 2.23171 31.7235 3.3586 34.885 5.57345L36.0326 3.93542C32.4896 1.45331 28.2767 0.231709 23.4418 0.231709V2.23171ZM34.885 5.57346C38.0513 7.79164 40.5076 11.0307 42.2287 15.3517L44.0867 14.6117C42.2472 9.99329 39.5708 6.41421 36.0326 3.93542L34.885 5.57346ZM42.23 15.3551C43.9691 19.6754 44.8565 24.9391 44.8565 31.1749H46.8565C46.8565 24.7592 45.9447 19.2275 44.0853 14.6083L42.23 15.3551ZM44.8565 31.1749C44.8565 37.449 43.969 42.7518 42.2289 47.111L44.0864 47.8524C45.9449 43.1965 46.8565 37.628 46.8565 31.1749H44.8565ZM42.2281 47.113C40.5065 51.4537 38.0493 54.7121 34.8819 56.949L36.0357 58.5826C39.5728 56.0847 42.2482 52.487 44.0872 47.8504L42.2281 47.113ZM34.8798 56.9505C31.7393 59.181 27.9433 60.3169 23.4418 60.3169V62.3169C28.2963 62.3169 32.5117 61.0855 36.0379 58.5811L34.8798 56.9505ZM23.4418 53.4249C27.4889 53.4249 30.6605 51.3956 32.912 47.562L31.1874 46.5492C29.2343 49.8747 26.6673 51.4249 23.4418 51.4249V53.4249ZM32.9112 47.5634C35.1651 43.7397 36.2315 38.2355 36.2315 31.1749H34.2315C34.2315 38.0915 33.1767 43.1745 31.1883 46.5478L32.9112 47.5634ZM36.2315 31.1749C36.2315 26.4911 35.7429 22.5024 34.7386 19.2335L32.8268 19.8208C33.7543 22.8398 34.2315 26.6163 34.2315 31.1749H36.2315ZM34.7386 19.2335C33.7392 15.9807 32.2994 13.4326 30.362 11.6828L29.0215 13.167C30.6069 14.599 31.8943 16.7858 32.8268 19.8208L34.7386 19.2335ZM30.3664 11.6868C28.4191 9.90696 26.0945 9.01012 23.4418 9.01012V11.0101C25.5996 11.0101 27.4417 11.7231 29.0171 13.163L30.3664 11.6868ZM23.4418 9.01012C19.4088 9.01012 16.2478 11.0537 13.9988 14.9034L15.7257 15.9123C17.6812 12.565 20.2399 11.0101 23.4418 11.0101V9.01012ZM13.9999 14.9014C11.7665 18.7042 10.6995 24.1684 10.6804 31.1722L12.6804 31.1776C12.6991 24.3177 13.7534 19.2705 15.7245 15.9143L13.9999 14.9014ZM10.6804 31.1708C10.6612 35.8729 11.1304 39.8794 12.1145 43.1663L14.0304 42.5926C13.1206 39.5537 12.6617 35.7572 12.6804 31.179L10.6804 31.1708ZM12.116 43.1715C13.115 46.4425 14.5537 49.0082 16.4887 50.7767L17.838 49.3004C16.2502 47.8492 14.9617 45.6422 14.0288 42.5874L12.116 43.1715ZM16.4931 50.7806C18.4425 52.5414 20.7757 53.4249 23.4418 53.4249V51.4249C21.2593 51.4249 19.4069 50.7175 17.8336 49.2964L16.4931 50.7806ZM59.4943 1.23171L59.4853 2.23167L59.4875 2.23169L59.4943 1.23171ZM67.6193 2.70898L67.2749 3.64782L67.283 3.65073L67.6193 2.70898ZM74.7784 7.36807L74.0651 8.0689L74.0682 8.07203L74.7784 7.36807ZM79.8352 15.976L78.8906 16.3042L79.8352 15.976ZM81.7102 29.3283H80.7102L80.7102 29.3321L81.7102 29.3283ZM80.1193 42.7374L79.1549 42.4731L79.154 42.4762L80.1193 42.7374ZM75.5455 52.6806L76.3515 53.2724L75.5455 52.6806ZM68.358 58.8738L67.9059 57.9818L68.358 58.8738ZM49.125 58.8453L48.6706 59.7362L48.673 59.7374L49.125 58.8453ZM42.2784 52.9363L41.458 53.508L42.2784 52.9363ZM39.0682 44.3567V43.3567H37.937L38.0757 44.4793L39.0682 44.3567ZM49.4375 44.3567L50.4122 44.133L50.234 43.3567H49.4375V44.3567ZM52.6761 49.8681L52.0341 50.6349L52.0439 50.6428L52.6761 49.8681ZM68.2159 46.6294L67.3666 46.1015L68.2159 46.6294ZM71.483 32.0272H72.483V31.0272H71.483V32.0272ZM71.0852 32.0272V31.0272H70.4975L70.2115 31.5407L71.0852 32.0272ZM67.4773 36.3453L68.1056 37.1233L68.1116 37.1184L67.4773 36.3453ZM62.4489 39.101L62.1241 38.1552L62.1211 38.1563L62.4489 39.101ZM47.3352 37.6238L46.8198 38.4807L46.8225 38.4823L47.3352 37.6238ZM40.8864 30.9192L40.0114 31.4034L40.0139 31.4078L40.8864 30.9192ZM38.5 21.1749H37.5L37.5 21.1801L38.5 21.1749ZM41.1136 10.976L40.2491 10.4735L40.2481 10.4752L41.1136 10.976ZM48.4716 3.81694L48.9563 4.6916L48.9604 4.68935L48.4716 3.81694ZM53.983 11.2601L54.5004 12.1159L54.5032 12.1141L53.983 11.2601ZM50.1193 15.2942L49.2452 14.8086L49.2433 14.8119L50.1193 15.2942ZM48.7273 20.9476H47.7272L47.7273 20.9568L48.7273 20.9476ZM50.1193 26.5726L49.2391 27.0473L49.2433 27.0549L50.1193 26.5726ZM53.8977 30.5783L53.3714 31.4286L53.3759 31.4313L53.8977 30.5783ZM63.6989 31.1749L63.2939 30.2605L63.6989 31.1749ZM67.1648 28.7317L66.4385 28.0443L66.4381 28.0447L67.1648 28.7317ZM69.4943 25.1238L68.5731 24.7345L68.5686 24.7456L69.4943 25.1238ZM70.3182 20.8624H69.3181L69.3183 20.875L70.3182 20.8624ZM68.8977 15.351L68.0217 15.8333L68.0259 15.8408L68.8977 15.351ZM65.0625 11.2885L64.5263 12.1326L64.5307 12.1354L65.0625 11.2885ZM59.4875 2.23169C62.1555 2.24984 64.7497 2.72128 67.2749 3.64779L67.9638 1.77018C65.2238 0.76487 62.4013 0.251463 59.5011 0.231733L59.4875 2.23169ZM67.283 3.65073C69.7818 4.54314 72.0416 6.00931 74.0651 8.0689L75.4917 6.66725C73.2728 4.40866 70.7599 2.76876 67.9557 1.76724L67.283 3.65073ZM74.0682 8.07203C76.0601 10.0818 77.6771 12.8107 78.8906 16.3042L80.7799 15.6479C79.4934 11.9444 77.7391 8.93467 75.4887 6.66412L74.0682 8.07203ZM78.8906 16.3042C80.0927 19.7647 80.7102 24.0965 80.7102 29.3283H82.7102C82.7102 23.954 82.0778 19.3843 80.7799 15.6479L78.8906 16.3042ZM80.7102 29.3321C80.7289 34.261 80.2058 38.638 79.1549 42.4731L81.0838 43.0017C82.1919 38.958 82.7294 34.3956 82.7102 29.3245L80.7102 29.3321ZM79.154 42.4762C78.1191 46.3018 76.6415 49.4982 74.7394 52.0887L76.3515 53.2724C78.4267 50.4463 79.9983 47.0139 81.0846 42.9985L79.154 42.4762ZM74.7394 52.0887C72.837 54.6796 70.5594 56.6371 67.9059 57.9818L68.81 59.7658C71.7625 58.2695 74.2766 56.0982 76.3515 53.2724L74.7394 52.0887ZM67.9059 57.9818C65.2585 59.3234 62.2627 60.0044 58.8977 60.0044V62.0044C62.5403 62.0044 65.8514 61.265 68.81 59.7658L67.9059 57.9818ZM58.8977 60.0044C55.3563 60.0044 52.2577 59.3115 49.577 57.9533L48.673 59.7374C51.6741 61.2579 55.0906 62.0044 58.8977 62.0044V60.0044ZM49.5794 57.9545C46.8978 56.5867 44.7435 54.7243 43.0988 52.3645L41.458 53.508C43.2982 56.1483 45.7083 58.2252 48.6706 59.7362L49.5794 57.9545ZM43.0988 52.3645C41.4554 50.0066 40.4397 47.303 40.0606 44.2341L38.0757 44.4793C38.4921 47.8498 39.6165 50.8659 41.458 53.508L43.0988 52.3645ZM39.0682 45.3567H49.4375V43.3567H39.0682V45.3567ZM48.4628 44.5804C49.0359 47.0775 50.219 49.1151 52.0342 50.6348L53.3181 49.1013C51.8757 47.8938 50.8997 46.2571 50.4122 44.133L48.4628 44.5804ZM52.0439 50.6428C53.9003 52.1579 56.2096 52.8851 58.8977 52.8851V50.8851C56.5858 50.8851 54.7474 50.2677 53.3084 49.0933L52.0439 50.6428ZM58.8977 52.8851C63.2869 52.8851 66.7097 50.9466 69.0652 47.1574L67.3666 46.1015C65.366 49.3198 62.5767 50.8851 58.8977 50.8851V52.8851ZM69.0652 47.1574C71.3798 43.4338 72.483 38.3563 72.483 32.0272H70.483C70.483 38.1601 69.408 42.8175 67.3666 46.1015L69.0652 47.1574ZM71.483 31.0272H71.0852V33.0272H71.483V31.0272ZM70.2115 31.5407C69.3447 33.0974 68.2233 34.4397 66.843 35.5723L68.1116 37.1184C69.6858 35.8268 70.9697 34.2902 71.9589 32.5136L70.2115 31.5407ZM66.8489 35.5674C65.4662 36.6842 63.8938 37.5475 62.1241 38.1553L62.7737 40.0468C64.754 39.3667 66.5338 38.3929 68.1056 37.1233L66.8489 35.5674ZM62.1211 38.1563C60.3767 38.7615 58.5183 39.0669 56.5398 39.0669V41.0669C58.7279 41.0669 60.8089 40.7285 62.7766 40.0458L62.1211 38.1563ZM56.5398 39.0669C53.2975 39.0669 50.4089 38.2946 47.848 36.7652L46.8225 38.4823C49.7161 40.2104 52.9638 41.0669 56.5398 41.0669V39.0669ZM47.8506 36.7668C45.296 35.2304 43.2675 33.1246 41.7589 30.4306L40.0139 31.4078C41.6871 34.3957 43.9578 36.7595 46.8199 38.4807L47.8506 36.7668ZM41.7613 30.4351C40.2803 27.7585 39.5182 24.6788 39.5 21.1697L37.5 21.1801C37.5197 24.9816 38.3485 28.3981 40.0114 31.4034L41.7613 30.4351ZM39.5 21.1749C39.5 17.5468 40.3326 14.3227 41.9792 11.4769L40.2481 10.4752C38.4099 13.6521 37.5 17.2272 37.5 21.1749H39.5ZM41.9782 11.4786C43.6465 8.60843 45.966 6.34887 48.9563 4.69159L47.9868 2.94229C44.6893 4.76986 42.1035 7.28302 40.2491 10.4735L41.9782 11.4786ZM48.9604 4.68935C51.9286 3.0264 55.4257 2.1951 59.4853 2.23167L59.5033 0.23175C55.1539 0.192564 51.3024 1.08475 47.9828 2.94452L48.9604 4.68935ZM59.5227 8.75444C57.3053 8.75444 55.2767 9.30103 53.4627 10.4061L54.5032 12.1141C55.9847 11.2116 57.6493 10.7544 59.5227 10.7544V8.75444ZM53.4655 10.4044C51.6838 11.4817 50.2746 12.9556 49.2452 14.8086L50.9935 15.7799C51.858 14.2238 53.0245 13.0083 54.5004 12.1159L53.4655 10.4044ZM49.2433 14.8119C48.2273 16.6573 47.7273 18.71 47.7273 20.9476H49.7273C49.7273 19.0186 50.1553 17.3023 50.9953 15.7765L49.2433 14.8119ZM47.7273 20.9568C47.7476 23.1708 48.2469 25.2076 49.2392 27.0473L50.9995 26.0979C50.1735 24.5665 49.7448 22.8532 49.7272 20.9384L47.7273 20.9568ZM49.2433 27.0549C50.2518 28.8867 51.6299 30.3505 53.3714 31.4286L54.4241 29.728C52.9837 28.8364 51.8429 27.6297 50.9953 26.0903L49.2433 27.0549ZM53.3759 31.4313C55.1574 32.5212 57.1784 33.0556 59.4091 33.0556V31.0556C57.511 31.0556 55.8577 30.6051 54.4196 29.7253L53.3759 31.4313ZM59.4091 33.0556C61.0744 33.0556 62.6432 32.7361 64.1038 32.0892L63.2939 30.2605C62.103 30.7879 60.812 31.0556 59.4091 31.0556V33.0556ZM64.1038 32.0892C65.5494 31.4491 66.8144 30.5579 67.8914 29.4187L66.4381 28.0447C65.5454 28.9889 64.4999 29.7265 63.2939 30.2605L64.1038 32.0892ZM67.8911 29.4191C68.9794 28.2691 69.8238 26.9617 70.4201 25.5019L68.5686 24.7456C68.0664 25.9752 67.3577 27.0731 66.4385 28.0443L67.8911 29.4191ZM70.4155 25.513C71.0387 24.038 71.3387 22.4804 71.3181 20.8497L69.3183 20.875C69.3355 22.2368 69.0863 23.5202 68.5732 24.7345L70.4155 25.513ZM71.3182 20.8624C71.3182 18.7073 70.803 16.7008 69.7696 14.8612L68.0259 15.8408C68.8864 17.3725 69.3182 19.0402 69.3182 20.8624H71.3182ZM69.7737 14.8687C68.7638 13.0344 67.367 11.5547 65.5943 10.4416L64.5307 12.1354C66.0156 13.0678 67.1756 14.2964 68.0217 15.8333L69.7737 14.8687ZM65.5987 10.4445C63.8139 9.31055 61.7778 8.75444 59.5227 8.75444V10.7544C61.4343 10.7544 63.0914 11.2211 64.5263 12.1326L65.5987 10.4445Z" fill="#6B7280" mask="url(#path-1-outside-1_389_211)"/>
</g>
</svg>
